<?xml version="1.0" encoding="UTF-8" standalone="no"?>
<!DOCTYPE svg PUBLIC "-//W3C//DTD SVG 1.0//EN" "http://www.w3.org/TR/2001/PR-SVG-20010719/DTD/svg10.dtd">
<svg width="63cm" height="48cm" viewBox="-412 618 1255 959" xmlns="http://www.w3.org/2000/svg" xmlns:xlink="http://www.w3.org/1999/xlink">
  <g>
    <polygon style="fill: #000000" points="446.16,821.615 784.66,821.615 796.66,833.615 796.66,879.126 446.16,879.126 "/>
    <polygon style="fill: none; fill-opacity:0; stroke-width: 2; stroke: #000000" points="446.16,821.615 784.66,821.615 796.66,833.615 796.66,879.126 446.16,879.126 "/>
    <polyline style="fill: none; fill-opacity:0; stroke-width: 1; stroke: #000000" points="784.66,821.615 784.66,833.615 796.66,833.615 "/>
    <text font-size="15.8042" style="fill: #ffffff;text-anchor:start;font-family:monospace;font-style:normal;font-weight:normal" x="453.16" y="849.315">
      <tspan x="453.16" y="849.315">$ ramdisk-image-create -u discovery</tspan>
      <tspan x="453.16" y="869.071">$ ramdisk-image-create -u deploy</tspan>
    </text>
  </g>
  <g>
    <polygon style="fill: #000000" points="444.174,1138.04 754.174,1138.04 766.174,1150.04 766.174,1235.06 444.174,1235.06 "/>
    <polygon style="fill: none; fill-opacity:0; stroke-width: 2; stroke: #000000" points="444.174,1138.04 754.174,1138.04 766.174,1150.04 766.174,1235.06 444.174,1235.06 "/>
    <polyline style="fill: none; fill-opacity:0; stroke-width: 1; stroke: #000000" points="754.174,1138.04 754.174,1150.04 766.174,1150.04 "/>
    <text font-size="15.8042" style="fill: #ffffff;text-anchor:start;font-family:monospace;font-style:normal;font-weight:normal" x="451.174" y="1165.74">
      <tspan x="451.174" y="1165.74">$ nova baremetal-node-create \</tspan>
      <tspan x="451.174" y="1185.49">  $HOST $CPU $RAM $DISK</tspan>
      <tspan x="451.174" y="1205.25">$ nova baremetal-interface-add \</tspan>
      <tspan x="451.174" y="1225">  $NODE_ID $MAC</tspan>
    </text>
  </g>
  <g>
    <polygon style="fill: #000000" points="445,623 698,623 710,635 710,680.511 445,680.511 "/>
    <polygon style="fill: none; fill-opacity:0; stroke-width: 2; stroke: #000000" points="445,623 698,623 710,635 710,680.511 445,680.511 "/>
    <polyline style="fill: none; fill-opacity:0; stroke-width: 1; stroke: #000000" points="698,623 698,635 710,635 "/>
    <text font-size="15.8042" style="fill: #ffffff;text-anchor:start;font-family:monospace;font-style:normal;font-weight:normal" x="452" y="650.7">
      <tspan x="452" y="650.7">$ disk-image-create \</tspan>
      <tspan x="452" y="670.456">  -u base ubuntu bootstrap</tspan>
    </text>
  </g>
  <g>
    <rect style="fill: #ffffff" x="-195" y="621" width="249.4" height="41.1667" rx="20" ry="20"/>
    <rect style="fill: none; fill-opacity:0; stroke-width: 2; stroke: #000000" x="-195" y="621" width="249.4" height="41.1667" rx="20" ry="20"/>
    <text font-size="16.9331" style="fill: #000000;text-anchor:middle;font-family:sans-serif;font-style:normal;font-weight:normal" x="-70.3" y="646.75">
      <tspan x="-70.3" y="646.75">Download bootstrap image</tspan>
    </text>
  </g>
  <g>
    <polygon style="fill: #ffffff" points="60,640 80,620 100,640 80,660 "/>
    <polygon style="fill: none; fill-opacity:0; stroke-width: 2; stroke: #000000" points="60,640 80,620 100,640 80,660 "/>
  </g>
  <g>
    <rect style="fill: #ffffff" x="106" y="620" width="291.5" height="41.1667" rx="20" ry="20"/>
    <rect style="fill: none; fill-opacity:0; stroke-width: 2; stroke: #000000" x="106" y="620" width="291.5" height="41.1667" rx="20" ry="20"/>
    <text font-size="16.9331" style="fill: #000000;text-anchor:middle;font-family:sans-serif;font-style:normal;font-weight:normal" x="251.75" y="645.75">
      <tspan x="251.75" y="645.75">Build your own bootstrap image</tspan>
    </text>
  </g>
  <g>
    <rect style="fill: #ffffff" x="-41" y="715" width="241.65" height="62.3333" rx="20" ry="20"/>
    <rect style="fill: none; fill-opacity:0; stroke-width: 2; stroke: #000000" x="-41" y="715" width="241.65" height="62.3333" rx="20" ry="20"/>
    <text font-size="16.9331" style="fill: #000000;text-anchor:middle;font-family:sans-serif;font-style:normal;font-weight:normal" x="79.825" y="740.75">
      <tspan x="79.825" y="740.75">Run "bootstrap" image</tspan>
      <tspan x="79.825" y="761.917">in a VM w/ network bridge</tspan>
    </text>
  </g>
  <g>
    <rect style="fill: #ffffff" x="-92" y="826" width="343.7" height="41.1667" rx="20" ry="20"/>
    <rect style="fill: none; fill-opacity:0; stroke-width: 2; stroke: #000000" x="-92" y="826" width="343.7" height="41.1667" rx="20" ry="20"/>
    <text font-size="16.9331" style="fill: #000000;text-anchor:middle;font-family:sans-serif;font-style:normal;font-weight:normal" x="79.85" y="851.75">
      <tspan x="79.85" y="851.75">Create ramdisks for your environment</tspan>
    </text>
  </g>
  <g>
    <rect style="fill: #ffffff" x="102" y="1147" width="217.3" height="62.3333" rx="20" ry="20"/>
    <rect style="fill: none; fill-opacity:0; stroke-width: 2; stroke: #000000" x="102" y="1147" width="217.3" height="62.3333" rx="20" ry="20"/>
    <text font-size="16.9331" style="fill: #000000;text-anchor:middle;font-family:sans-serif;font-style:normal;font-weight:normal" x="210.65" y="1172.75">
      <tspan x="210.65" y="1172.75">Enroll your hardware in</tspan>
      <tspan x="210.65" y="1193.92">the "bootstrap" cloud</tspan>
    </text>
  </g>
  <g>
    <polygon style="fill: #ffffff" points="58,1176 78,1156 98,1176 78,1196 "/>
    <polygon style="fill: none; fill-opacity:0; stroke-width: 2; stroke: #000000" points="58,1176 78,1156 98,1176 78,1196 "/>
  </g>
  <g>
    <rect style="fill: #ffffff" x="-169" y="1157" width="222.2" height="41.1667" rx="20" ry="20"/>
    <rect style="fill: none; fill-opacity:0; stroke-width: 2; stroke: #000000" x="-169" y="1157" width="222.2" height="41.1667" rx="20" ry="20"/>
    <text font-size="16.9331" style="fill: #000000;text-anchor:middle;font-family:sans-serif;font-style:normal;font-weight:normal" x="-57.9" y="1182.75">
      <tspan x="-57.9" y="1182.75">Auto-discover hardware</tspan>
    </text>
  </g>
  <g>
    <rect style="fill: #ffffff" x="-181.179" y="923.002" width="237.1" height="41.1667" rx="20" ry="20"/>
    <rect style="fill: none; fill-opacity:0; stroke-width: 2; stroke: #000000" x="-181.179" y="923.002" width="237.1" height="41.1667" rx="20" ry="20"/>
    <text font-size="16.9331" style="fill: #000000;text-anchor:middle;font-family:sans-serif;font-style:normal;font-weight:normal" x="-62.6287" y="948.752">
      <tspan x="-62.6287" y="948.752">Download service images</tspan>
    </text>
  </g>
  <g>
    <polygon style="fill: #ffffff" points="59.8213,944.002 79.8213,924.002 99.8213,944.002 79.8213,964.002 "/>
    <polygon style="fill: none; fill-opacity:0; stroke-width: 2; stroke: #000000" points="59.8213,944.002 79.8213,924.002 99.8213,944.002 79.8213,964.002 "/>
  </g>
  <g>
    <rect style="fill: #ffffff" x="101.821" y="924.002" width="279.2" height="41.1667" rx="20" ry="20"/>
    <rect style="fill: none; fill-opacity:0; stroke-width: 2; stroke: #000000" x="101.821" y="924.002" width="279.2" height="41.1667" rx="20" ry="20"/>
    <text font-size="16.9331" style="fill: #000000;text-anchor:middle;font-family:sans-serif;font-style:normal;font-weight:normal" x="241.421" y="949.752">
      <tspan x="241.421" y="949.752">Build your own service images</tspan>
    </text>
  </g>
  <g>
    <polygon style="fill: #000000" points="443.821,924.588 829.821,924.588 841.821,936.588 841.821,1001.85 443.821,1001.85 "/>
    <polygon style="fill: none; fill-opacity:0; stroke-width: 2; stroke: #000000" points="443.821,924.588 829.821,924.588 841.821,936.588 841.821,1001.85 443.821,1001.85 "/>
    <polyline style="fill: none; fill-opacity:0; stroke-width: 1; stroke: #000000" points="829.821,924.588 829.821,936.588 841.821,936.588 "/>
    <text font-size="15.8042" style="fill: #ffffff;text-anchor:start;font-family:monospace;font-style:normal;font-weight:normal" x="450.821" y="952.288">
      <tspan x="450.821" y="952.288">$ disk-image-create -u base ubuntu nova</tspan>
      <tspan x="450.821" y="972.043">$ disk-image-create -u base ubuntu swift</tspan>
      <tspan x="450.821" y="991.799">$ ....</tspan>
    </text>
  </g>
  <g>
    <rect style="fill: #ffffff" x="-65.1787" y="1033.59" width="287.9" height="62.3333" rx="20" ry="20"/>
    <rect style="fill: none; fill-opacity:0; stroke-width: 2; stroke: #000000" x="-65.1787" y="1033.59" width="287.9" height="62.3333" rx="20" ry="20"/>
    <text font-size="16.9331" style="fill: #000000;text-anchor:middle;font-family:sans-serif;font-style:normal;font-weight:normal" x="78.7713" y="1059.34">
      <tspan x="78.7713" y="1059.34">Load all the images into Glance</tspan>
      <tspan x="78.7713" y="1080.5">on your "bootstrap" cloud</tspan>
    </text>
  </g>
  <g>
    <polygon style="fill: #ffffff" points="-410.279,702.088 -215.079,702.088 -203.079,714.088 -203.079,799.11 -410.279,799.11 "/>
    <polygon style="fill: none; fill-opacity:0; stroke-width: 2; stroke: #000000" points="-410.279,702.088 -215.079,702.088 -203.079,714.088 -203.079,799.11 -410.279,799.11 "/>
    <polyline style="fill: none; fill-opacity:0; stroke-width: 1; stroke: #000000" points="-215.079,702.088 -215.079,714.088 -203.079,714.088 "/>
    <text font-size="15.8044" style="fill: #000000;text-anchor:start;font-family:serif;font-style:italic;font-weight:normal" x="-403.279" y="729.788">
      <tspan x="-403.279" y="729.788">This creates a minimal</tspan>
      <tspan x="-403.279" y="749.543">OpenStack cloud inside</tspan>
      <tspan x="-403.279" y="769.299">that VM, running the</tspan>
      <tspan x="-403.279" y="789.054">Baremetal driver!</tspan>
    </text>
  </g>
  <g>
    <rect style="fill: #ffffff" x="-75.2787" y="1264.34" width="309.9" height="62.3333" rx="20" ry="20"/>
    <rect style="fill: none; fill-opacity:0; stroke-width: 2; stroke: #000000" x="-75.2787" y="1264.34" width="309.9" height="62.3333" rx="20" ry="20"/>
    <text font-size="16.9331" style="fill: #000000;text-anchor:middle;font-family:sans-serif;font-style:normal;font-weight:normal" x="79.6713" y="1290.09">
      <tspan x="79.6713" y="1290.09">Use Heat to deploy a multi-node</tspan>
      <tspan x="79.6713" y="1311.25">Baremetal cloud on a few servers.</tspan>
    </text>
  </g>
  <g>
    <rect style="fill: #ffffff" x="-64.2787" y="1390.34" width="287.9" height="62.3333" rx="20" ry="20"/>
    <rect style="fill: none; fill-opacity:0; stroke-width: 2; stroke: #000000" x="-64.2787" y="1390.34" width="287.9" height="62.3333" rx="20" ry="20"/>
    <text font-size="16.9331" style="fill: #000000;text-anchor:middle;font-family:sans-serif;font-style:normal;font-weight:normal" x="79.6713" y="1416.09">
      <tspan x="79.6713" y="1416.09">Load all the images into Glance</tspan>
      <tspan x="79.6713" y="1437.25">in your "baremetal" cloud.</tspan>
    </text>
  </g>
  <g>
    <rect style="fill: #ffffff" x="-78.2787" y="1513.34" width="318.45" height="62.3333" rx="20" ry="20"/>
    <rect style="fill: none; fill-opacity:0; stroke-width: 2; stroke: #000000" x="-78.2787" y="1513.34" width="318.45" height="62.3333" rx="20" ry="20"/>
    <text font-size="16.9331" style="fill: #000000;text-anchor:middle;font-family:sans-serif;font-style:normal;font-weight:normal" x="80.9463" y="1539.09">
      <tspan x="80.9463" y="1539.09">Use Heat to deploy a multi-node</tspan>
      <tspan x="80.9463" y="1560.25">KVM cloud on all the other servers!</tspan>
    </text>
  </g>
  <g>
    <line style="fill: none; fill-opacity:0; stroke-width: 4; stroke: #000000" x1="80" y1="660" x2="79.8632" y2="703"/>
    <polygon style="fill: #000000" points="74.8632,702.984 79.8314,713 84.8632,703.016 "/>
    <polygon style="fill: none; fill-opacity:0; stroke-width: 4; stroke: #000000" points="74.8632,702.984 79.8314,713 84.8632,703.016 "/>
  </g>
  <g>
    <line style="fill: none; fill-opacity:0; stroke-width: 4; stroke: #000000" x1="79.825" y1="777.333" x2="79.8438" y2="814"/>
    <polygon style="fill: #000000" points="74.8438,814.003 79.849,824 84.8438,813.997 "/>
    <polygon style="fill: none; fill-opacity:0; stroke-width: 4; stroke: #000000" points="74.8438,814.003 79.849,824 84.8438,813.997 "/>
  </g>
  <g>
    <line style="fill: none; fill-opacity:0; stroke-width: 4; stroke: #000000" x1="79.85" y1="867.167" x2="79.8273" y2="912.002"/>
    <polygon style="fill: #000000" points="74.8273,911.999 79.8223,922.002 84.8273,912.004 "/>
    <polygon style="fill: none; fill-opacity:0; stroke-width: 4; stroke: #000000" points="74.8273,911.999 79.8223,922.002 84.8273,912.004 "/>
  </g>
  <g>
    <line style="fill: none; fill-opacity:0; stroke-width: 4; stroke: #000000" x1="79.8213" y1="964.002" x2="78.9523" y2="1021.59"/>
    <polygon style="fill: #000000" points="73.9529,1021.51 78.8014,1031.59 83.9517,1021.66 "/>
    <polygon style="fill: none; fill-opacity:0; stroke-width: 4; stroke: #000000" points="73.9529,1021.51 78.8014,1031.59 83.9517,1021.66 "/>
  </g>
  <g>
    <line style="fill: none; fill-opacity:0; stroke-width: 4; stroke: #000000" x1="78.7713" y1="1095.92" x2="78.154" y2="1144"/>
    <polygon style="fill: #000000" points="73.1544,1143.94 78.0257,1154 83.1536,1144.07 "/>
    <polygon style="fill: none; fill-opacity:0; stroke-width: 4; stroke: #000000" points="73.1544,1143.94 78.0257,1154 83.1536,1144.07 "/>
  </g>
  <g>
    <line style="fill: none; fill-opacity:0; stroke-width: 4; stroke: #000000" x1="78" y1="1196" x2="79.3779" y2="1252.34"/>
    <polygon style="fill: #000000" points="74.3794,1252.46 79.6224,1262.34 84.3764,1252.22 "/>
    <polygon style="fill: none; fill-opacity:0; stroke-width: 4; stroke: #000000" points="74.3794,1252.46 79.6224,1262.34 84.3764,1252.22 "/>
  </g>
  <g>
    <line style="fill: none; fill-opacity:0; stroke-width: 4; stroke: #000000" x1="79.6713" y1="1326.67" x2="79.6713" y2="1378.34"/>
    <polygon style="fill: #000000" points="74.6713,1378.34 79.6713,1388.34 84.6713,1378.34 "/>
    <polygon style="fill: none; fill-opacity:0; stroke-width: 4; stroke: #000000" points="74.6713,1378.34 79.6713,1388.34 84.6713,1378.34 "/>
  </g>
  <g>
    <line style="fill: none; fill-opacity:0; stroke-width: 4; stroke: #000000" x1="79.6713" y1="1452.67" x2="80.6941" y2="1501.34"/>
    <polygon style="fill: #000000" points="75.6952,1501.45 80.9042,1511.34 85.693,1501.24 "/>
    <polygon style="fill: none; fill-opacity:0; stroke-width: 4; stroke: #000000" points="75.6952,1501.45 80.9042,1511.34 85.693,1501.24 "/>
  </g>
  <g>
    <image x="-382.097" y="1510.12" width="113.363" height="39.6628" xlink:href="file:///home/deva/Downloads/cc-by-sa.png"/>
    <text font-size="12.7998" style="fill: #0000ff;text-anchor:start;font-family:sans-serif;font-style:normal;font-weight:normal" x="-395.097" y="1563.12">
      <tspan x="-395.097" y="1563.12">http://devananda.net/</tspan>
    </text>
  </g>
</svg>
