<?xml version="1.0" encoding="UTF-8" standalone="no"?>
<!DOCTYPE svg PUBLIC "-//W3C//DTD SVG 1.0//EN" "http://www.w3.org/TR/2001/PR-SVG-20010719/DTD/svg10.dtd">
<svg width="63cm" height="29cm" viewBox="50 84 1256 565" xmlns="http://www.w3.org/2000/svg" xmlns:xlink="http://www.w3.org/1999/xlink">
  <g>
    <path style="fill: none; fill-opacity:0; stroke-width: 2; stroke: #000000" d="M 679.344 292.947 C 708.612,294.583 973.812,305.167 1013.97,322.547"/>
    <polygon style="fill: #000000" points="679.624,287.955 669.36,292.389 679.065,297.939 "/>
    <polygon style="fill: none; fill-opacity:0; stroke-width: 2; stroke: #000000" points="679.624,287.955 669.36,292.389 679.065,297.939 "/>
    <polygon style="fill: #000000" points="1011.98,327.136 1023.14,326.519 1015.95,317.959 "/>
    <polygon style="fill: none; fill-opacity:0; stroke-width: 2; stroke: #000000" points="1011.98,327.136 1023.14,326.519 1015.95,317.959 "/>
  </g>
  <g>
    <path style="fill: none; fill-opacity:0; stroke-width: 2; stroke: #000000" d="M 965.868 152.828 C 960,198.75 1048.97,235.583 1068.14,285.482"/>
    <polygon style="fill: #000000" points="970.827,153.462 967.135,142.909 960.908,152.194 "/>
    <polygon style="fill: none; fill-opacity:0; stroke-width: 2; stroke: #000000" points="970.827,153.462 967.135,142.909 960.908,152.194 "/>
    <polygon style="fill: #000000" points="1063.48,287.274 1071.73,294.817 1072.81,283.689 "/>
    <polygon style="fill: none; fill-opacity:0; stroke-width: 2; stroke: #000000" points="1063.48,287.274 1071.73,294.817 1072.81,283.689 "/>
  </g>
  <g>
    <path style="fill: none; fill-opacity:0; stroke-width: 2; stroke: #000000" d="M 1072.52 284.758 C 1073.89,249.75 1216.01,286.917 1215.84,247.917"/>
    <polygon style="fill: #000000" points="1067.52,284.563 1072.13,294.751 1077.51,284.954 "/>
    <polygon style="fill: none; fill-opacity:0; stroke-width: 2; stroke: #000000" points="1067.52,284.563 1072.13,294.751 1077.51,284.954 "/>
    <polygon style="fill: #000000" points="1220.84,247.894 1215.79,237.917 1210.84,247.939 "/>
    <polygon style="fill: none; fill-opacity:0; stroke-width: 2; stroke: #000000" points="1220.84,247.894 1215.79,237.917 1210.84,247.939 "/>
  </g>
  <g>
    <path style="fill: none; fill-opacity:0; stroke-width: 2; stroke: #000000" d="M 1071.86 369.081 C 1071.04,410.083 1071.24,390.75 1072.87,422.764"/>
    <polygon style="fill: #000000" points="1076.86,369.182 1072.07,359.083 1066.87,368.98 "/>
    <polygon style="fill: none; fill-opacity:0; stroke-width: 2; stroke: #000000" points="1076.86,369.182 1072.07,359.083 1066.87,368.98 "/>
    <polygon style="fill: #000000" points="1067.88,423.02 1073.39,432.751 1077.87,422.509 "/>
    <polygon style="fill: none; fill-opacity:0; stroke-width: 2; stroke: #000000" points="1067.88,423.02 1073.39,432.751 1077.87,422.509 "/>
  </g>
  <g>
    <path style="fill: none; fill-opacity:0; stroke-width: 2; stroke: #000000" d="M 1073.39 485.917 C 1073.24,517.917 1073.26,504.666 1075.2,539.683"/>
    <polygon style="fill: #000000" points="1078.39,485.94 1073.43,475.917 1068.39,485.893 "/>
    <polygon style="fill: none; fill-opacity:0; stroke-width: 2; stroke: #000000" points="1078.39,485.94 1073.43,475.917 1068.39,485.893 "/>
    <polygon style="fill: #000000" points="1070.21,539.96 1075.76,549.668 1080.19,539.406 "/>
    <polygon style="fill: none; fill-opacity:0; stroke-width: 2; stroke: #000000" points="1070.21,539.96 1075.76,549.668 1080.19,539.406 "/>
  </g>
  <g>
    <rect style="fill: #ffffff" x="997.062" y="433.75" width="152.75" height="41.1667" rx="20" ry="20"/>
    <rect style="fill: none; fill-opacity:0; stroke-width: 2; stroke: #000000" x="997.062" y="433.75" width="152.75" height="41.1667" rx="20" ry="20"/>
    <text font-size="16.9333" style="fill: #000000;text-anchor:middle;font-family:sans-serif;font-style:normal;font-weight:normal" x="1073.44" y="459.5">
      <tspan x="1073.44" y="459.5">nova-conductor</tspan>
    </text>
  </g>
  <g>
    <rect style="fill: #ffffff" x="1024.06" y="295.75" width="96.05" height="62.3333" rx="20" ry="20"/>
    <rect style="fill: none; fill-opacity:0; stroke-width: 2; stroke: #000000" x="1024.06" y="295.75" width="96.05" height="62.3333" rx="20" ry="20"/>
    <text font-size="16.9333" style="fill: #000000;text-anchor:middle;font-family:sans-serif;font-style:normal;font-weight:normal" x="1072.09" y="321.5">
      <tspan x="1072.09" y="321.5">message</tspan>
      <tspan x="1072.09" y="342.667">queues</tspan>
    </text>
  </g>
  <g>
    <rect style="fill: #ffffff" x="526.062" y="271.75" width="142.3" height="41.1667" rx="20" ry="20"/>
    <rect style="fill: none; fill-opacity:0; stroke-width: 2; stroke: #000000" x="526.062" y="271.75" width="142.3" height="41.1667" rx="20" ry="20"/>
    <text font-size="16.9333" style="fill: #000000;text-anchor:middle;font-family:sans-serif;font-style:normal;font-weight:normal" x="597.212" y="297.5">
      <tspan x="597.212" y="297.5">nova-compute</tspan>
    </text>
  </g>
  <g>
    <rect style="fill: #ffffff" x="1169.06" y="195.75" width="93.45" height="41.1667" rx="20" ry="20"/>
    <rect style="fill: none; fill-opacity:0; stroke-width: 2; stroke: #000000" x="1169.06" y="195.75" width="93.45" height="41.1667" rx="20" ry="20"/>
    <text font-size="16.9333" style="fill: #000000;text-anchor:middle;font-family:sans-serif;font-style:normal;font-weight:normal" x="1215.79" y="221.5">
      <tspan x="1215.79" y="221.5">nova-api</tspan>
    </text>
  </g>
  <g>
    <rect style="fill: #ffffff" x="892.062" y="100.75" width="150.4" height="41.1667" rx="20" ry="20"/>
    <rect style="fill: none; fill-opacity:0; stroke-width: 2; stroke: #000000" x="892.062" y="100.75" width="150.4" height="41.1667" rx="20" ry="20"/>
    <text font-size="16.9333" style="fill: #000000;text-anchor:middle;font-family:sans-serif;font-style:normal;font-weight:normal" x="967.262" y="126.5">
      <tspan x="967.262" y="126.5">nova-scheduler</tspan>
    </text>
  </g>
  <g>
    <path style="fill: #ffffff" d="M 1032.39 566.777 C 1049.76,554.694 1058.44,550.666 1075.81,550.666 C 1093.18,550.666 1101.87,554.694 1119.24,566.777 L 1119.24,631.222 C 1101.87,643.305 1093.18,647.333 1075.81,647.333 C 1058.44,647.333 1049.76,643.305 1032.39,631.222 L 1032.39,566.777z"/>
    <path style="fill: none; fill-opacity:0; stroke-width: 2; stroke: #000000" d="M 1032.39 566.777 C 1049.76,554.694 1058.44,550.666 1075.81,550.666 C 1093.18,550.666 1101.87,554.694 1119.24,566.777 L 1119.24,631.222 C 1101.87,643.305 1093.18,647.333 1075.81,647.333 C 1058.44,647.333 1049.76,643.305 1032.39,631.222 L 1032.39,566.777"/>
    <path style="fill: none; fill-opacity:0; stroke-width: 2; stroke: #000000" d="M 1032.39 566.777 C 1049.76,578.86 1058.44,582.888 1075.81,582.888 C 1093.18,582.888 1101.87,578.86 1119.24,566.777"/>
    <text font-size="16.9333" style="fill: #000000;text-anchor:middle;font-family:sans-serif;font-style:normal;font-weight:normal" x="1075.81" y="601.763">
      <tspan x="1075.81" y="601.763">Nova</tspan>
      <tspan x="1075.81" y="622.93">Database</tspan>
    </text>
  </g>
  <g>
    <path style="fill: #ffffff" d="M 823.987 556.778 C 842.717,544.694 852.082,540.667 870.812,540.667 C 889.542,540.667 898.907,544.694 917.637,556.778 L 917.637,621.222 C 898.907,633.305 889.542,637.333 870.812,637.333 C 852.082,637.333 842.717,633.305 823.987,621.222 L 823.987,556.778z"/>
    <path style="fill: none; fill-opacity:0; stroke-width: 2; stroke: #000000" d="M 823.987 556.778 C 842.717,544.694 852.082,540.667 870.812,540.667 C 889.542,540.667 898.907,544.694 917.637,556.778 L 917.637,621.222 C 898.907,633.305 889.542,637.333 870.812,637.333 C 852.082,637.333 842.717,633.305 823.987,621.222 L 823.987,556.778"/>
    <path style="fill: none; fill-opacity:0; stroke-width: 2; stroke: #000000" d="M 823.987 556.778 C 842.717,568.861 852.082,572.889 870.812,572.889 C 889.542,572.889 898.907,568.861 917.637,556.778"/>
    <text font-size="16.9333" style="fill: #000000;text-anchor:middle;font-family:sans-serif;font-style:normal;font-weight:normal" x="870.812" y="591.764">
      <tspan x="870.812" y="591.764">Baremetal</tspan>
      <tspan x="870.812" y="612.93">Database</tspan>
    </text>
  </g>
  <g>
    <path style="fill: none; fill-opacity:0; stroke-width: 2; stroke: #000000" d="M 597.69 323.906 C 605,491.75 872,464.75 870.984,529.668"/>
    <polygon style="fill: #000000" points="602.685,323.689 597.255,313.916 592.695,324.124 "/>
    <polygon style="fill: none; fill-opacity:0; stroke-width: 2; stroke: #000000" points="602.685,323.689 597.255,313.916 592.695,324.124 "/>
    <polygon style="fill: #000000" points="865.984,529.59 870.827,539.667 875.983,529.746 "/>
    <polygon style="fill: none; fill-opacity:0; stroke-width: 2; stroke: #000000" points="865.984,529.59 870.827,539.667 875.983,529.746 "/>
  </g>
  <g>
    <line style="fill: none; fill-opacity:0; stroke-width: 2; stroke: #000000" x1="258.577" y1="289.689" x2="526.062" y2="292.333"/>
    <polygon style="fill: #000000" points="258.626,284.69 248.577,289.591 258.527,294.689 "/>
    <polygon style="fill: none; fill-opacity:0; stroke-width: 2; stroke: #000000" points="258.626,284.69 248.577,289.591 258.527,294.689 "/>
  </g>
  <g>
    <polygon style="fill: #ffffff" points="324.848,258.1 381.848,258.1 393.848,270.1 393.848,318.433 324.848,318.433 "/>
    <polygon style="fill: none; fill-opacity:0; stroke-width: 2; stroke: #000000" points="324.848,258.1 381.848,258.1 393.848,270.1 393.848,318.433 324.848,318.433 "/>
    <polyline style="fill: none; fill-opacity:0; stroke-width: 1; stroke: #000000" points="381.848,258.1 381.848,270.1 393.848,270.1 "/>
    <text font-size="16.9333" style="fill: #000000;text-anchor:start;font-family:monospace;font-style:normal;font-weight:normal" x="331.848" y="286.85">
      <tspan x="331.848" y="286.85">IPMI</tspan>
      <tspan x="331.848" y="308.016">+ PXE</tspan>
    </text>
  </g>
  <g>
    <rect style="fill: #ffffff" x="669.1" y="85.25" width="80" height="41.1667" rx="20" ry="20"/>
    <rect style="fill: none; fill-opacity:0; stroke-width: 2; stroke: #000000" x="669.1" y="85.25" width="80" height="41.1667" rx="20" ry="20"/>
    <text font-size="16.9331" style="fill: #000000;text-anchor:middle;font-family:sans-serif;font-style:normal;font-weight:normal" x="709.1" y="111">
      <tspan x="709.1" y="111">glance</tspan>
    </text>
  </g>
  <g>
    <rect style="fill: #ffffff" x="451.1" y="94.25" width="96.55" height="41.1667" rx="20" ry="20"/>
    <rect style="fill: none; fill-opacity:0; stroke-width: 2; stroke: #000000" x="451.1" y="94.25" width="96.55" height="41.1667" rx="20" ry="20"/>
    <text font-size="16.9331" style="fill: #000000;text-anchor:middle;font-family:sans-serif;font-style:normal;font-weight:normal" x="499.375" y="120">
      <tspan x="499.375" y="120">quantum</tspan>
    </text>
  </g>
  <g>
    <path style="fill: none; fill-opacity:0; stroke-width: 2; stroke: #000000" d="M 603.911 263.026 C 631,227.75 709.326,176.417 709.15,137.417"/>
    <polygon style="fill: #000000" points="599.946,259.98 597.821,270.957 607.877,266.071 "/>
    <polygon style="fill: none; fill-opacity:0; stroke-width: 2; stroke: #000000" points="599.946,259.98 597.821,270.957 607.877,266.071 "/>
    <polygon style="fill: #000000" points="714.15,137.394 709.105,127.417 704.15,137.439 "/>
    <polygon style="fill: none; fill-opacity:0; stroke-width: 2; stroke: #000000" points="714.15,137.394 709.105,127.417 704.15,137.439 "/>
  </g>
  <g>
    <path style="fill: none; fill-opacity:0; stroke-width: 2; stroke: #000000" d="M 590.616 262.947 C 562,224.75 499.601,185.417 499.425,146.417"/>
    <polygon style="fill: #000000" points="586.615,265.944 596.612,270.95 594.618,259.949 "/>
    <polygon style="fill: none; fill-opacity:0; stroke-width: 2; stroke: #000000" points="586.615,265.944 596.612,270.95 594.618,259.949 "/>
    <polygon style="fill: #000000" points="504.425,146.394 499.38,136.417 494.425,146.439 "/>
    <polygon style="fill: none; fill-opacity:0; stroke-width: 2; stroke: #000000" points="504.425,146.394 499.38,136.417 494.425,146.439 "/>
  </g>
  <g>
    <g>
      <g>
        <path style="fill: #c9c9b6" d="M 144.49 255.9 L 157.567,243.5 L 247.577,243.5 L 234.518,255.9 L 144.49,255.9z"/>
        <path style="fill: none; fill-opacity:0; stroke-width: 0.02; stroke: #494936" d="M 144.49 255.9 L 157.567,243.5 L 247.577,243.5 L 234.518,255.9 L 144.49,255.9"/>
        <path style="fill: #b7b79d" d="M 144.49 255.9 L 234.518,255.9 L 234.518,348.842 L 144.49,348.842 L 144.49,255.9z"/>
        <path style="fill: none; fill-opacity:0; stroke-width: 0.02; stroke: #494936" d="M 144.49 255.9 L 234.518,255.9 L 234.518,348.842 L 144.49,348.842 L 144.49,255.9"/>
        <path style="fill: #7a7a5a" d="M 234.518 348.842 L 247.577,335.679 L 247.577,243.5 L 234.518,255.9 L 234.518,348.842z"/>
        <path style="fill: none; fill-opacity:0; stroke-width: 0.02; stroke: #494936" d="M 234.518 348.842 L 247.577,335.679 L 247.577,243.5 L 234.518,255.9 L 234.518,348.842"/>
        <path style="fill: none; fill-opacity:0; stroke-width: 0.6; stroke: #dbdbce" d="M 144.49 280.701 L 235.229,280.701"/>
        <path style="fill: none; fill-opacity:0; stroke-width: 0.6; stroke: #000000" d="M 144.49 303.923 L 235.229,303.923"/>
        <path style="fill: none; fill-opacity:0; stroke-width: 0.6; stroke: #000000" d="M 144.49 327.146 L 235.229,327.146"/>
        <path style="fill: none; fill-opacity:0; stroke-width: 0.6; stroke: #494936" d="M 144.49 279.921 L 235.229,279.921"/>
        <path style="fill: none; fill-opacity:0; stroke-width: 0.6; stroke: #000000" d="M 144.49 303.143 L 235.229,303.143"/>
        <path style="fill: none; fill-opacity:0; stroke-width: 0.6; stroke: #000000" d="M 144.49 326.4 L 235.229,326.4"/>
        <path style="fill: none; fill-opacity:0; stroke-width: 0.02; stroke: #494936" d="M 144.49 255.9 L 234.518,255.9 L 234.518,348.842 L 144.49,348.842 L 144.49,255.9"/>
        <path style="fill: none; fill-opacity:0; stroke-width: 1.4; stroke: #ecece7" d="M 206.041 269.081 L 227.581,269.081"/>
        <path style="fill: none; fill-opacity:0; stroke-width: 1.4; stroke: #000000" d="M 206.041 292.269 L 227.581,292.269"/>
        <path style="fill: none; fill-opacity:0; stroke-width: 1.4; stroke: #000000" d="M 206.041 315.543 L 227.581,315.543"/>
        <path style="fill: none; fill-opacity:0; stroke-width: 1.4; stroke: #000000" d="M 206.041 338.766 L 227.581,338.766"/>
        <path style="fill: none; fill-opacity:0; stroke-width: 1.4; stroke: #000000" d="M 205.295 268.301 L 226.818,268.301"/>
        <path style="fill: none; fill-opacity:0; stroke-width: 1.4; stroke: #000000" d="M 205.295 291.523 L 226.818,291.523"/>
        <path style="fill: none; fill-opacity:0; stroke-width: 1.4; stroke: #000000" d="M 205.295 314.763 L 226.818,314.763"/>
        <path style="fill: none; fill-opacity:0; stroke-width: 1.4; stroke: #000000" d="M 205.295 338.02 L 226.818,338.02"/>
      </g>
      <g>
        <path style="fill: #c9c9b6" d="M 117.186 280.424 L 130.263,268.023 L 220.273,268.023 L 207.214,280.424 L 117.186,280.424z"/>
        <path style="fill: none; fill-opacity:0; stroke-width: 0.02; stroke: #494936" d="M 117.186 280.424 L 130.263,268.023 L 220.273,268.023 L 207.214,280.424 L 117.186,280.424"/>
        <path style="fill: #b7b79d" d="M 117.186 280.424 L 207.214,280.424 L 207.214,373.365 L 117.186,373.365 L 117.186,280.424z"/>
        <path style="fill: none; fill-opacity:0; stroke-width: 0.02; stroke: #494936" d="M 117.186 280.424 L 207.214,280.424 L 207.214,373.365 L 117.186,373.365 L 117.186,280.424"/>
        <path style="fill: #7a7a5a" d="M 207.214 373.365 L 220.273,360.202 L 220.273,268.023 L 207.214,280.424 L 207.214,373.365z"/>
        <path style="fill: none; fill-opacity:0; stroke-width: 0.02; stroke: #494936" d="M 207.214 373.365 L 220.273,360.202 L 220.273,268.023 L 207.214,280.424 L 207.214,373.365"/>
        <path style="fill: none; fill-opacity:0; stroke-width: 0.6; stroke: #dbdbce" d="M 117.186 305.224 L 207.925,305.224"/>
        <path style="fill: none; fill-opacity:0; stroke-width: 0.6; stroke: #000000" d="M 117.186 328.447 L 207.925,328.447"/>
        <path style="fill: none; fill-opacity:0; stroke-width: 0.6; stroke: #000000" d="M 117.186 351.669 L 207.925,351.669"/>
        <path style="fill: none; fill-opacity:0; stroke-width: 0.6; stroke: #494936" d="M 117.186 304.444 L 207.925,304.444"/>
        <path style="fill: none; fill-opacity:0; stroke-width: 0.6; stroke: #000000" d="M 117.186 327.666 L 207.925,327.666"/>
        <path style="fill: none; fill-opacity:0; stroke-width: 0.6; stroke: #000000" d="M 117.186 350.923 L 207.925,350.923"/>
        <path style="fill: none; fill-opacity:0; stroke-width: 0.02; stroke: #494936" d="M 117.186 280.424 L 207.214,280.424 L 207.214,373.365 L 117.186,373.365 L 117.186,280.424"/>
        <path style="fill: none; fill-opacity:0; stroke-width: 1.4; stroke: #ecece7" d="M 178.737 293.604 L 200.277,293.604"/>
        <path style="fill: none; fill-opacity:0; stroke-width: 1.4; stroke: #000000" d="M 178.737 316.792 L 200.277,316.792"/>
        <path style="fill: none; fill-opacity:0; stroke-width: 1.4; stroke: #000000" d="M 178.737 340.066 L 200.277,340.066"/>
        <path style="fill: none; fill-opacity:0; stroke-width: 1.4; stroke: #000000" d="M 178.737 363.289 L 200.277,363.289"/>
        <path style="fill: none; fill-opacity:0; stroke-width: 1.4; stroke: #000000" d="M 177.991 292.824 L 199.514,292.824"/>
        <path style="fill: none; fill-opacity:0; stroke-width: 1.4; stroke: #000000" d="M 177.991 316.046 L 199.514,316.046"/>
        <path style="fill: none; fill-opacity:0; stroke-width: 1.4; stroke: #000000" d="M 177.991 339.286 L 199.514,339.286"/>
        <path style="fill: none; fill-opacity:0; stroke-width: 1.4; stroke: #000000" d="M 177.991 362.543 L 199.514,362.543"/>
      </g>
      <g>
        <path style="fill: #c9c9b6" d="M 90.286 304.924 L 103.363,292.523 L 193.373,292.523 L 180.314,304.924 L 90.286,304.924z"/>
        <path style="fill: none; fill-opacity:0; stroke-width: 0.02; stroke: #494936" d="M 90.286 304.924 L 103.363,292.523 L 193.373,292.523 L 180.314,304.924 L 90.286,304.924"/>
        <path style="fill: #b7b79d" d="M 90.286 304.924 L 180.314,304.924 L 180.314,397.865 L 90.286,397.865 L 90.286,304.924z"/>
        <path style="fill: none; fill-opacity:0; stroke-width: 0.02; stroke: #494936" d="M 90.286 304.924 L 180.314,304.924 L 180.314,397.865 L 90.286,397.865 L 90.286,304.924"/>
        <path style="fill: #7a7a5a" d="M 180.314 397.865 L 193.373,384.702 L 193.373,292.523 L 180.314,304.924 L 180.314,397.865z"/>
        <path style="fill: none; fill-opacity:0; stroke-width: 0.02; stroke: #494936" d="M 180.314 397.865 L 193.373,384.702 L 193.373,292.523 L 180.314,304.924 L 180.314,397.865"/>
        <path style="fill: none; fill-opacity:0; stroke-width: 0.6; stroke: #dbdbce" d="M 90.286 329.724 L 181.025,329.724"/>
        <path style="fill: none; fill-opacity:0; stroke-width: 0.6; stroke: #000000" d="M 90.286 352.947 L 181.025,352.947"/>
        <path style="fill: none; fill-opacity:0; stroke-width: 0.6; stroke: #000000" d="M 90.286 376.169 L 181.025,376.169"/>
        <path style="fill: none; fill-opacity:0; stroke-width: 0.6; stroke: #494936" d="M 90.286 328.944 L 181.025,328.944"/>
        <path style="fill: none; fill-opacity:0; stroke-width: 0.6; stroke: #000000" d="M 90.286 352.166 L 181.025,352.166"/>
        <path style="fill: none; fill-opacity:0; stroke-width: 0.6; stroke: #000000" d="M 90.286 375.423 L 181.025,375.423"/>
        <path style="fill: none; fill-opacity:0; stroke-width: 0.02; stroke: #494936" d="M 90.286 304.924 L 180.314,304.924 L 180.314,397.865 L 90.286,397.865 L 90.286,304.924"/>
        <path style="fill: none; fill-opacity:0; stroke-width: 1.4; stroke: #ecece7" d="M 151.837 318.104 L 173.377,318.104"/>
        <path style="fill: none; fill-opacity:0; stroke-width: 1.4; stroke: #000000" d="M 151.837 341.292 L 173.377,341.292"/>
        <path style="fill: none; fill-opacity:0; stroke-width: 1.4; stroke: #000000" d="M 151.837 364.566 L 173.377,364.566"/>
        <path style="fill: none; fill-opacity:0; stroke-width: 1.4; stroke: #000000" d="M 151.837 387.789 L 173.377,387.789"/>
        <path style="fill: none; fill-opacity:0; stroke-width: 1.4; stroke: #000000" d="M 151.091 317.324 L 172.614,317.324"/>
        <path style="fill: none; fill-opacity:0; stroke-width: 1.4; stroke: #000000" d="M 151.091 340.546 L 172.614,340.546"/>
        <path style="fill: none; fill-opacity:0; stroke-width: 1.4; stroke: #000000" d="M 151.091 363.786 L 172.614,363.786"/>
        <path style="fill: none; fill-opacity:0; stroke-width: 1.4; stroke: #000000" d="M 151.091 387.043 L 172.614,387.043"/>
      </g>
    </g>
    <text font-size="16.9331" style="fill: #000000;text-anchor:start;font-family:sans-serif;font-style:normal;font-weight:normal" x="79.1" y="426.5">
      <tspan x="79.1" y="426.5">Bare Metal Nodes</tspan>
    </text>
  </g>
  <g>
    <polygon style="fill: #d8e5e5" points="1164,141.75 1293.2,141.75 1305.2,153.75 1305.2,175.75 1164,175.75 "/>
    <polygon style="fill: none; fill-opacity:0; stroke-width: 2; stroke: #000000" points="1164,141.75 1293.2,141.75 1305.2,153.75 1305.2,175.75 1164,175.75 "/>
    <polyline style="fill: none; fill-opacity:0; stroke-width: 1; stroke: #000000" points="1293.2,141.75 1293.2,153.75 1305.2,153.75 "/>
    <text font-size="12.7998" style="fill: #000000;text-anchor:start;font-family:monospace;font-style:normal;font-weight:normal" x="1171" y="166.65">
      <tspan x="1171" y="166.65">1) nova boot ...</tspan>
    </text>
  </g>
  <g>
    <polygon style="fill: #d8e5e5" points="878,167.75 1053.4,167.75 1065.4,179.75 1065.4,217.75 878,217.75 "/>
    <polygon style="fill: none; fill-opacity:0; stroke-width: 2; stroke: #000000" points="878,167.75 1053.4,167.75 1065.4,179.75 1065.4,217.75 878,217.75 "/>
    <polyline style="fill: none; fill-opacity:0; stroke-width: 1; stroke: #000000" points="1053.4,167.75 1053.4,179.75 1065.4,179.75 "/>
    <text font-size="12.7998" style="fill: #000000;text-anchor:start;font-family:monospace;font-style:normal;font-weight:normal" x="885" y="192.65">
      <tspan x="885" y="192.65">2) apply filters &amp;</tspan>
      <tspan x="885" y="208.65">   find available node</tspan>
    </text>
  </g>
  <g>
    <polygon style="fill: #d8e5e5" points="705.1,259.25 842,259.25 854,271.25 854,293.25 705.1,293.25 "/>
    <polygon style="fill: none; fill-opacity:0; stroke-width: 2; stroke: #000000" points="705.1,259.25 842,259.25 854,271.25 854,293.25 705.1,293.25 "/>
    <polyline style="fill: none; fill-opacity:0; stroke-width: 1; stroke: #000000" points="842,259.25 842,271.25 854,271.25 "/>
    <text font-size="12.7998" style="fill: #000000;text-anchor:start;font-family:monospace;font-style:normal;font-weight:normal" x="712.1" y="284.15">
      <tspan x="712.1" y="284.15">3) driver.spawn()</tspan>
    </text>
  </g>
  <g>
    <polygon style="fill: #d8e5e5" points="747,446.75 853.1,446.75 865.1,458.75 865.1,496.75 747,496.75 "/>
    <polygon style="fill: none; fill-opacity:0; stroke-width: 2; stroke: #000000" points="747,446.75 853.1,446.75 865.1,458.75 865.1,496.75 747,496.75 "/>
    <polyline style="fill: none; fill-opacity:0; stroke-width: 1; stroke: #000000" points="853.1,446.75 853.1,458.75 865.1,458.75 "/>
    <text font-size="12.7998" style="fill: #000000;text-anchor:start;font-family:monospace;font-style:normal;font-weight:normal" x="754" y="471.65">
      <tspan x="754" y="471.65">4) get info &amp;</tspan>
      <tspan x="754" y="487.65">   claim node</tspan>
    </text>
  </g>
  <g>
    <polygon style="fill: #d8e5e5" points="358,331.75 533.4,331.75 545.4,343.75 545.4,397.75 358,397.75 "/>
    <polygon style="fill: none; fill-opacity:0; stroke-width: 2; stroke: #000000" points="358,331.75 533.4,331.75 545.4,343.75 545.4,397.75 358,397.75 "/>
    <polyline style="fill: none; fill-opacity:0; stroke-width: 1; stroke: #000000" points="533.4,331.75 533.4,343.75 545.4,343.75 "/>
    <text font-size="12.7998" style="fill: #000000;text-anchor:start;font-family:monospace;font-style:normal;font-weight:normal" x="365" y="356.65">
      <tspan x="365" y="356.65">7) activate bootloader</tspan>
      <tspan x="365" y="372.65">8) IPMI power on</tspan>
      <tspan x="365" y="388.65">9) wait for deploy</tspan>
    </text>
  </g>
  <g>
    <polygon style="fill: #d8e5e5" points="640.1,170.25 761.6,170.25 773.6,182.25 773.6,204.25 640.1,204.25 "/>
    <polygon style="fill: none; fill-opacity:0; stroke-width: 2; stroke: #000000" points="640.1,170.25 761.6,170.25 773.6,182.25 773.6,204.25 640.1,204.25 "/>
    <polyline style="fill: none; fill-opacity:0; stroke-width: 1; stroke: #000000" points="761.6,170.25 761.6,182.25 773.6,182.25 "/>
    <text font-size="12.7998" style="fill: #000000;text-anchor:start;font-family:monospace;font-style:normal;font-weight:normal" x="647.1" y="195.15">
      <tspan x="647.1" y="195.15">6) fetch images</tspan>
    </text>
  </g>
  <g>
    <rect style="fill: #ffffff" x="222.1" y="537.25" width="277.2" height="41.1667" rx="20" ry="20"/>
    <rect style="fill: none; fill-opacity:0; stroke-width: 2; stroke: #000000" x="222.1" y="537.25" width="277.2" height="41.1667" rx="20" ry="20"/>
    <text font-size="16.9333" style="fill: #000000;text-anchor:middle;font-family:sans-serif;font-style:normal;font-weight:normal" x="360.7" y="563">
      <tspan x="360.7" y="563">nova-baremetal-deploy-helper</tspan>
    </text>
  </g>
  <g>
    <path style="fill: none; fill-opacity:0; stroke-width: 2; stroke: #000000" d="M 812.988 621.385 C 744.486,622.403 581.636,559.097 510.299,558.002"/>
    <polygon style="fill: #000000" points="813.062,626.385 822.987,621.237 812.914,616.386 "/>
    <polygon style="fill: none; fill-opacity:0; stroke-width: 2; stroke: #000000" points="813.062,626.385 822.987,621.237 812.914,616.386 "/>
    <polygon style="fill: #000000" points="510.375,553.003 500.3,557.849 510.222,563.002 "/>
    <polygon style="fill: none; fill-opacity:0; stroke-width: 2; stroke: #000000" points="510.375,553.003 500.3,557.849 510.222,563.002 "/>
  </g>
  <g>
    <path style="fill: none; fill-opacity:0; stroke-width: 2; stroke: #000000" d="M 211.779 533.445 C 161.75,515 329.914,336.943 258.576,335.847"/>
    <polygon style="fill: #000000" points="210.049,538.136 221.162,536.904 213.509,528.754 "/>
    <polygon style="fill: none; fill-opacity:0; stroke-width: 2; stroke: #000000" points="210.049,538.136 221.162,536.904 213.509,528.754 "/>
    <polygon style="fill: #000000" points="258.653,330.848 248.577,335.694 258.499,340.847 "/>
    <polygon style="fill: none; fill-opacity:0; stroke-width: 2; stroke: #000000" points="258.653,330.848 248.577,335.694 258.499,340.847 "/>
  </g>
  <g>
    <polygon style="fill: #d8e5e5" points="51.75,455 319.55,455 331.55,467 331.55,521 51.75,521 "/>
    <polygon style="fill: none; fill-opacity:0; stroke-width: 2; stroke: #000000" points="51.75,455 319.55,455 331.55,467 331.55,521 51.75,521 "/>
    <polyline style="fill: none; fill-opacity:0; stroke-width: 1; stroke: #000000" points="319.55,455 319.55,467 331.55,467 "/>
    <text font-size="12.7998" style="fill: #000000;text-anchor:start;font-family:monospace;font-style:normal;font-weight:normal" x="58.75" y="479.9">
      <tspan x="58.75" y="479.9">10) handshake</tspan>
      <tspan x="58.75" y="495.9">11) copy image &amp; change PXE config</tspan>
      <tspan x="58.75" y="511.9">12) reboot</tspan>
    </text>
  </g>
  <g>
    <polygon style="fill: #d8e5e5" points="453,167.75 551.4,167.75 563.4,179.75 563.4,201.75 453,201.75 "/>
    <polygon style="fill: none; fill-opacity:0; stroke-width: 2; stroke: #000000" points="453,167.75 551.4,167.75 563.4,179.75 563.4,201.75 453,201.75 "/>
    <polyline style="fill: none; fill-opacity:0; stroke-width: 1; stroke: #000000" points="551.4,167.75 551.4,179.75 563.4,179.75 "/>
    <text font-size="12.7998" style="fill: #000000;text-anchor:start;font-family:monospace;font-style:normal;font-weight:normal" x="460" y="192.65">
      <tspan x="460" y="192.65">5) plug VIFs</tspan>
    </text>
  </g>
  <g>
    <polygon style="fill: #d8e5e5" points="553.75,543 752.25,543 764.25,555 764.25,577 553.75,577 "/>
    <polygon style="fill: none; fill-opacity:0; stroke-width: 2; stroke: #000000" points="553.75,543 752.25,543 764.25,555 764.25,577 553.75,577 "/>
    <polyline style="fill: none; fill-opacity:0; stroke-width: 1; stroke: #000000" points="752.25,543 752.25,555 764.25,555 "/>
    <text font-size="12.7998" style="fill: #000000;text-anchor:start;font-family:monospace;font-style:normal;font-weight:normal" x="560.75" y="567.9">
      <tspan x="560.75" y="567.9">13) update status of node</tspan>
    </text>
  </g>
  <g>
    <polygon style="fill: #d8e5e5" points="704.85,307.5 849.45,307.5 861.45,319.5 861.45,357.5 704.85,357.5 "/>
    <polygon style="fill: none; fill-opacity:0; stroke-width: 2; stroke: #000000" points="704.85,307.5 849.45,307.5 861.45,319.5 861.45,357.5 704.85,357.5 "/>
    <polyline style="fill: none; fill-opacity:0; stroke-width: 1; stroke: #000000" points="849.45,307.5 849.45,319.5 861.45,319.5 "/>
    <text font-size="12.7998" style="fill: #000000;text-anchor:start;font-family:monospace;font-style:normal;font-weight:normal" x="711.85" y="332.4">
      <tspan x="711.85" y="332.4">14) update</tspan>
      <tspan x="711.85" y="348.4">    instance state</tspan>
    </text>
  </g>
  <g>
    <image x="164.186" y="96.1404" width="113.363" height="39.6628" xlink:href="file:///home/deva/Downloads/cc-by-sa.png"/>
    <text font-size="12.7998" style="fill: #0000ff;text-anchor:start;font-family:sans-serif;font-style:normal;font-weight:normal" x="151.186" y="149.14">
      <tspan x="151.186" y="149.14">http://devananda.net/</tspan>
    </text>
  </g>
</svg>
