<?xml version="1.0" encoding="UTF-8" standalone="no"?>
<!DOCTYPE svg PUBLIC "-//W3C//DTD SVG 1.0//EN" "http://www.w3.org/TR/2001/PR-SVG-20010719/DTD/svg10.dtd">
<svg width="57cm" height="25cm" viewBox="-58 -104 1140 500" xmlns="http://www.w3.org/2000/svg" xmlns:xlink="http://www.w3.org/1999/xlink">
  <g>
    <path style="fill: #c9c9b6" d="M -38.3205 4.31614 L -25.3685,-7.80759 L 71.3452,-7.80759 L 58.4393,4.31614 L -38.3205,4.31614z"/>
    <path style="fill: none; fill-opacity:0; stroke-width: 0.02; stroke: #494936" d="M -38.3205 4.31614 L -25.3685,-7.80759 L 71.3452,-7.80759 L 58.4393,4.31614 L -38.3205,4.31614"/>
    <path style="fill: #b7b79d" d="M -38.3205 4.31614 L 58.4393,4.31614 L 58.4393,22.4672 L -38.3205,22.4672 L -38.3205,4.31614z"/>
    <path style="fill: none; fill-opacity:0; stroke-width: 0.02; stroke: #494936" d="M -38.3205 4.31614 L 58.4393,4.31614 L 58.4393,22.4672 L -38.3205,22.4672 L -38.3205,4.31614"/>
    <path style="fill: #7a7a5a" d="M 58.4393 22.4672 L 71.3452,9.58432 L 71.3452,-7.80759 L 58.4393,4.31614 L 58.4393,22.4672z"/>
    <path style="fill: none; fill-opacity:0; stroke-width: 0.02; stroke: #494936" d="M 58.4393 22.4672 L 71.3452,9.58432 L 71.3452,-7.80759 L 58.4393,4.31614 L 58.4393,22.4672"/>
    <path style="fill: #000000" d="M -35.2378 2.03862 L -25.3685,-7.80759 L 69.0907,-7.80759 L 59.1525,2.03862 L -35.2378,2.03862z"/>
    <path style="fill: none; fill-opacity:0; stroke-width: 0.02; stroke: #000000" d="M -35.2378 2.03862 L -25.3685,-7.80759 L 69.0907,-7.80759 L 59.1525,2.03862 L -35.2378,2.03862"/>
    <path style="fill: #c9c9b6" d="M -38.3205 -75.9489 L -27.6691,-85.7721 L 69.0907,-85.7721 L 58.4393,-75.9489 L -38.3205,-75.9489z"/>
    <path style="fill: none; fill-opacity:0; stroke-width: 0.02; stroke: #494936" d="M -38.3205 -75.9489 L -27.6691,-85.7721 L 69.0907,-85.7721 L 58.4393,-75.9489 L -38.3205,-75.9489"/>
    <path style="fill: #b7b79d" d="M -38.3205 -75.9489 L 59.1525,-75.9489 L 59.1525,0.497276 L -38.3205,0.497276 L -38.3205,-75.9489z"/>
    <path style="fill: none; fill-opacity:0; stroke-width: 0.02; stroke: #494936" d="M -38.3205 -75.9489 L 59.1295,-75.9489 L 59.1295,0.47427 L -38.3205,0.47427 L -38.3205,-75.9489"/>
    <path style="fill: #5a777a" d="M -29.9696 -66.1027 L 50.7786,-66.1027 L 50.7786,-7.09443 L -29.9696,-7.09443 L -29.9696,-66.1027z"/>
    <path style="fill: none; fill-opacity:0; stroke-width: 0.02; stroke: #494936" d="M -29.9696 -66.1027 L 50.7556,-66.1027 L 50.7556,-7.11744 L -29.9696,-7.11744 L -29.9696,-66.1027"/>
    <path style="fill: #7a7a5a" d="M 58.4393 -0.23889 L 69.0907,-10.8443 L 69.0907,-85.7721 L 58.4393,-75.9489 L 58.4393,-0.23889z"/>
    <path style="fill: none; fill-opacity:0; stroke-width: 0.02; stroke: #494936" d="M 58.4393 -0.23889 L 69.0907,-10.8443 L 69.0907,-85.7721 L 58.4393,-75.9489 L 58.4393,-0.23889"/>
    <path style="fill: #c9c9b6" d="M -57.3457 37.6046 L -42.0933,18.7174 L 62.9944,18.7174 L 47.7189,37.6046 L -57.3457,37.6046z"/>
    <path style="fill: none; fill-opacity:0; stroke-width: 0.02; stroke: #494936" d="M -57.3457 37.6046 L -42.0933,18.7174 L 62.9944,18.7174 L 47.7189,37.6046 L -57.3457,37.6046"/>
    <path style="fill: #7a7a5a" d="M 47.7189 41.3775 L 62.9944,25.5269 L 62.9944,18.7174 L 47.7189,37.6046 L 47.7189,41.3775z"/>
    <path style="fill: none; fill-opacity:0; stroke-width: 0.02; stroke: #494936" d="M 47.7189 41.3775 L 62.9944,25.5269 L 62.9944,18.7174 L 47.7189,37.6046 L 47.7189,41.3775"/>
    <path style="fill: #b7b79d" d="M -57.3457 37.6046 L 47.7189,37.6046 L 47.7189,41.3775 L -57.3457,41.3775 L -57.3457,37.6046z"/>
    <path style="fill: none; fill-opacity:0; stroke-width: 0.02; stroke: #494936" d="M -57.3457 37.6046 L 47.7189,37.6046 L 47.7189,41.3775 L -57.3457,41.3775 L -57.3457,37.6046"/>
    <path style="fill: #e7ecec" d="M 29.4758 -49.447 L 29.4528,-49.9301 L 29.3608,-50.4132 L 29.2688,-50.8503 L 29.1307,-51.2874 L 28.9467,-51.7245 L 28.7166,-52.1846 L 28.4636,-52.6217 L 28.1875,-53.0358 L 27.8424,-53.4499 L 27.4744,-53.864 L 27.1063,-54.3011 L 26.6462,-54.6691 L 26.1631,-55.0142 L 25.703,-55.4053 L 25.1738,-55.7274 L 24.5987,-56.0495 L 24.0236,-56.3485 L 23.4024,-56.6246 L 22.7813,-56.9006 L 22.0911,-57.1767 L 21.424,-57.4298 L 20.7108,-57.6138 L 19.9977,-57.8439 L 19.2385,-58.0049 L 18.5253,-58.1659 L 17.7432,-58.2349 L 16.984,-58.35 L 16.2248,-58.465 L 15.4196,-58.488 L 14.6375,-58.511 L 13.8323,-58.557 L 13.8323,-58.557 L 13.0501,-58.511 L 12.2449,-58.488 L 11.4858,-58.465 L 10.7266,-58.35 L 9.94441,-58.2349 L 9.16224,-58.1659 L 8.44907,-58.0049 L 7.6899,-57.8439 L 6.97674,-57.6138 L 6.26358,-57.4298 L 5.61944,-57.1767 L 4.90628,-56.9006 L 4.28514,-56.6246 L 3.664,-56.3485 L 3.06586,-56.0495 L 2.51374,-55.7274 L 1.98462,-55.4053 L 1.52452,-55.0142 L 1.0184,-54.6691 L 0.581303,-54.3011 L 0.190215,-53.864 L -0.154862,-53.4499 L -0.49994,-53.0358 L -0.776002,-52.6217 L -1.02906,-52.1846 L -1.28212,-51.7245 L -1.44315,-51.2874 L -1.58118,-50.8503 L -1.69621,-50.4132 L -1.74222,-49.9301 L -1.76523,-49.447 L -1.76523,-49.447 L -1.74222,-49.0099 L -1.69621,-48.5498 L -1.58118,-48.1127 L -1.44315,-47.6526 L -1.28212,-47.1925 L -1.02906,-46.7324 L -0.776002,-46.2953 L -0.49994,-45.9042 L -0.154862,-45.4901 L 0.190215,-45.076 L 0.581303,-44.6619 L 1.0184,-44.2478 L 1.52452,-43.9257 L 1.98462,-43.5346 L 2.51374,-43.2126 L 3.06586,-42.8905 L 3.664,-42.5914 L 4.28514,-42.3154 L 4.90628,-42.0163 L 5.61944,-41.7632 L 6.26358,-41.5102 L 6.97674,-41.3261 L 7.6899,-41.0961 L 8.44907,-40.9351 L 9.16224,-40.774 L 9.94441,-40.682 L 10.7266,-40.59 L 11.4858,-40.498 L 12.2449,-40.4059 L 13.0501,-40.3829 L 13.8323,-40.3829 L 13.8323,-40.3829 L 14.6375,-40.3829 L 15.4196,-40.4059 L 16.2248,-40.498 L 16.984,-40.59 L 17.7432,-40.682 L 18.5253,-40.774 L 19.2385,-40.9351 L 19.9977,-41.0961 L 20.7108,-41.3261 L 21.424,-41.5102 L 22.0911,-41.7632 L 22.7813,-42.0163 L 23.4024,-42.3154 L 24.0236,-42.5914 L 24.5987,-42.8905 L 25.1738,-43.2126 L 25.703,-43.5346 L 26.1631,-43.9257 L 26.6462,-44.2478 L 27.1063,-44.6619 L 27.4744,-45.076 L 27.8424,-45.4901 L 28.1875,-45.9042 L 28.4636,-46.2953 L 28.7166,-46.7324 L 28.9467,-47.1925 L 29.1307,-47.6526 L 29.2688,-48.1127 L 29.3608,-48.5498 L 29.4528,-49.0099 L 29.4758,-49.447z"/>
    <path style="fill: #e7ecec" d="M 5.06731 -44.938 L 5.04431,-45.3751 L 5.0213,-45.8352 L 4.95229,-46.2723 L 4.83726,-46.7324 L 4.72224,-47.1925 L 4.51519,-47.6526 L 4.33115,-48.0897 L 4.14711,-48.5038 L 3.87104,-48.9178 L 3.61799,-49.3089 L 3.31892,-49.723 L 2.97384,-50.1141 L 2.60576,-50.4592 L 2.23768,-50.8503 L 1.84659,-51.1494 L 1.38648,-51.5174 L 0.972391,-51.8165 L 0.489283,-52.0926 L 0.00617378,-52.3686 L -0.476935,-52.6217 L -0.983049,-52.8517 L -1.53517,-53.0588 L -2.0873,-53.2888 L -2.63942,-53.4269 L -3.19155,-53.5879 L -3.76668,-53.7029 L -4.34181,-53.818 L -4.93994,-53.887 L -5.53807,-53.979 L -6.1132,-53.979 L -6.73434,-54.002 L -6.73434,-54.002 L -7.30947,-53.979 L -7.90761,-53.979 L -8.50574,-53.887 L -9.08087,-53.818 L -9.67901,-53.7029 L -10.2311,-53.5879 L -10.8063,-53.4269 L -11.3584,-53.2888 L -11.9105,-53.0588 L -12.4396,-52.8517 L -12.9687,-52.6217 L -13.4289,-52.3686 L -13.935,-52.0926 L -14.4181,-51.8165 L -14.8322,-51.5174 L -15.2923,-51.1494 L -15.6604,-50.8503 L -16.0284,-50.4592 L -16.3965,-50.1141 L -16.7646,-49.723 L -17.0637,-49.3089 L -17.3167,-48.9178 L -17.5698,-48.5038 L -17.7998,-48.0897 L -17.9609,-47.6526 L -18.1679,-47.1925 L -18.2599,-46.7324 L -18.398,-46.2723 L -18.467,-45.8352 L -18.513,-45.3751 L -18.536,-44.938 L -18.536,-44.938 L -18.513,-44.4778 L -18.467,-43.9717 L -18.398,-43.5346 L -18.2599,-43.0745 L -18.1679,-42.6374 L -17.9609,-42.2003 L -17.7998,-41.7632 L -17.5698,-41.3491 L -17.3167,-40.912 L -17.0637,-40.498 L -16.7646,-40.0839 L -16.3965,-39.7388 L -16.0284,-39.3477 L -15.6604,-39.0026 L -15.2923,-38.6575 L -14.8322,-38.3355 L -14.4181,-38.0364 L -13.935,-37.7603 L -13.4289,-37.4613 L -12.9687,-37.1852 L -12.4396,-36.9552 L -11.9105,-36.7481 L -11.3584,-36.5641 L -10.8063,-36.38 L -10.2311,-36.219 L -9.67901,-36.15 L -9.08087,-36.0349 L -8.50574,-35.9199 L -7.90761,-35.8739 L -7.30947,-35.8739 L -6.73434,-35.8509 L -6.73434,-35.8509 L -6.1132,-35.8739 L -5.53807,-35.8739 L -4.93994,-35.9199 L -4.34181,-36.0349 L -3.76668,-36.15 L -3.19155,-36.219 L -2.63942,-36.38 L -2.0873,-36.5641 L -1.53517,-36.7481 L -0.983049,-36.9552 L -0.476935,-37.1852 L 0.00617378,-37.4613 L 0.489283,-37.7603 L 0.972391,-38.0364 L 1.38648,-38.3355 L 1.84659,-38.6575 L 2.23768,-39.0026 L 2.60576,-39.3477 L 2.97384,-39.7388 L 3.31892,-40.0839 L 3.61799,-40.498 L 3.87104,-40.912 L 4.14711,-41.3491 L 4.33115,-41.7632 L 4.51519,-42.2003 L 4.72224,-42.6374 L 4.83726,-43.0745 L 4.95229,-43.5346 L 5.0213,-43.9717 L 5.04431,-44.4778 L 5.06731,-44.938z"/>
    <path style="fill: #e7ecec" d="M -10.1621 -35.4598 L -10.1621,-35.8049 L -10.1851,-36.173 L -10.2081,-36.5181 L -10.3232,-36.8861 L -10.4152,-37.2312 L -10.5072,-37.5993 L -10.6452,-37.9214 L -10.7833,-38.2895 L -10.9673,-38.6115 L -11.1283,-38.9336 L -11.3354,-39.2327 L -11.5884,-39.5317 L -11.8185,-39.8308 L -12.0715,-40.1069 L -12.3476,-40.3829 L -12.6467,-40.659 L -12.9457,-40.912 L -13.2678,-41.1191 L -13.5899,-41.3491 L -13.912,-41.5332 L -14.234,-41.7402 L -14.6021,-41.9243 L -14.9932,-42.0623 L -15.3613,-42.2003 L -15.7294,-42.3384 L -16.1435,-42.3844 L -16.5345,-42.4994 L -16.9486,-42.5454 L -17.3627,-42.6144 L -17.7308,-42.6374 L -18.1679,-42.6374 L -18.1679,-42.6374 L -18.559,-42.6374 L -18.9501,-42.6144 L -19.3642,-42.5454 L -19.7323,-42.4994 L -20.1694,-42.3844 L -20.5375,-42.3384 L -20.9285,-42.2003 L -21.3196,-42.0623 L -21.6877,-41.9243 L -22.0328,-41.7402 L -22.4009,-41.5332 L -22.7229,-41.3491 L -23.045,-41.1191 L -23.3671,-40.912 L -23.6892,-40.659 L -23.9652,-40.3829 L -24.2413,-40.1069 L -24.4943,-39.8308 L -24.7474,-39.5317 L -24.9314,-39.2327 L -25.1615,-38.9336 L -25.3455,-38.6115 L -25.5066,-38.2895 L -25.6676,-37.9214 L -25.7826,-37.5993 L -25.9207,-37.2312 L -25.9897,-36.8861 L -26.0587,-36.5181 L -26.1047,-36.173 L -26.1737,-35.8049 L -26.1737,-35.4598 L -26.1737,-35.4598 L -26.1737,-35.0687 L -26.1047,-34.7237 L -26.0587,-34.3326 L -25.9897,-34.0105 L -25.9207,-33.6194 L -25.7826,-33.2973 L -25.6676,-32.9753 L -25.5066,-32.6072 L -25.3455,-32.2851 L -25.1615,-31.963 L -24.9314,-31.664 L -24.7474,-31.3189 L -24.4943,-31.0198 L -24.2413,-30.7438 L -23.9652,-30.4677 L -23.6892,-30.2376 L -23.3671,-29.9846 L -23.045,-29.7315 L -22.7229,-29.5475 L -22.4009,-29.3634 L -22.0328,-29.1334 L -21.6877,-28.9724 L -21.3196,-28.8343 L -20.9285,-28.6963 L -20.5375,-28.5583 L -20.1694,-28.4662 L -19.7323,-28.3972 L -19.3642,-28.3282 L -18.9501,-28.2822 L -18.559,-28.2592 L -18.1679,-28.2592 L -18.1679,-28.2592 L -17.7308,-28.2592 L -17.3627,-28.2822 L -16.9486,-28.3282 L -16.5345,-28.3972 L -16.1435,-28.4662 L -15.7294,-28.5583 L -15.3613,-28.6963 L -14.9932,-28.8343 L -14.6021,-28.9724 L -14.234,-29.1334 L -13.912,-29.3634 L -13.5899,-29.5475 L -13.2678,-29.7315 L -12.9457,-29.9846 L -12.6467,-30.2376 L -12.3476,-30.4677 L -12.0715,-30.7438 L -11.8185,-31.0198 L -11.5884,-31.3189 L -11.3354,-31.664 L -11.1283,-31.963 L -10.9673,-32.2851 L -10.7833,-32.6072 L -10.6452,-32.9753 L -10.5072,-33.2973 L -10.4152,-33.6194 L -10.3232,-34.0105 L -10.2081,-34.3326 L -10.1851,-34.7237 L -10.1621,-35.0687 L -10.1621,-35.4598z"/>
    <path style="fill: #e7ecec" d="M 2.7668 -28.6733 L 2.74379,-29.0874 L 2.72078,-29.4325 L 2.67477,-29.8466 L 2.51374,-30.2606 L 2.39871,-30.6747 L 2.21467,-31.0198 L 2.00762,-31.4339 L 1.80058,-31.779 L 1.57053,-32.1471 L 1.24845,-32.5382 L 0.949386,-32.8602 L 0.581303,-33.1823 L 0.21322,-33.5044 L -0.154862,-33.8495 L -0.591961,-34.1485 L -0.983049,-34.4246 L -1.46616,-34.7006 L -1.92626,-34.9307 L -2.43238,-35.1838 L -2.96149,-35.4138 L -3.49061,-35.5979 L -4.01973,-35.7819 L -4.59486,-35.9429 L -5.16999,-36.127 L -5.74512,-36.219 L -6.34326,-36.334 L -6.94139,-36.449 L -7.56253,-36.4951 L -8.16066,-36.5641 L -8.7588,-36.6101 L -9.37994,-36.6101 L -9.37994,-36.6101 L -9.97807,-36.6101 L -10.6222,-36.5641 L -11.2434,-36.4951 L -11.8415,-36.449 L -12.4396,-36.334 L -13.0378,-36.219 L -13.6129,-36.127 L -14.188,-35.9429 L -14.7632,-35.7819 L -15.2923,-35.5979 L -15.8214,-35.4138 L -16.3275,-35.1838 L -16.8106,-34.9307 L -17.3167,-34.7006 L -17.7538,-34.4246 L -18.2139,-34.1485 L -18.582,-33.8495 L -18.9961,-33.5044 L -19.3642,-33.1823 L -19.6863,-32.8602 L -20.0083,-32.5382 L -20.3074,-32.1471 L -20.5375,-31.779 L -20.7905,-31.4339 L -20.9976,-31.0198 L -21.1356,-30.6747 L -21.2966,-30.2606 L -21.4116,-29.8466 L -21.4807,-29.4325 L -21.5037,-29.0874 L -21.5497,-28.6733 L -21.5497,-28.6733 L -21.5037,-28.2592 L -21.4807,-27.8451 L -21.4116,-27.454 L -21.2966,-27.0859 L -21.1356,-26.6718 L -20.9976,-26.2577 L -20.7905,-25.8667 L -20.5375,-25.5216 L -20.3074,-25.1535 L -20.0083,-24.8084 L -19.6863,-24.4403 L -19.3642,-24.1183 L -18.9961,-23.7962 L -18.582,-23.4971 L -18.2139,-23.1981 L -17.7538,-22.922 L -17.3167,-22.6229 L -16.8106,-22.3699 L -16.3275,-22.1168 L -15.8214,-21.9328 L -15.2923,-21.6797 L -14.7632,-21.5187 L -14.188,-21.3576 L -13.6129,-21.2196 L -13.0378,-21.0816 L -12.4396,-20.9666 L -11.8415,-20.8975 L -11.2434,-20.7825 L -10.6222,-20.7595 L -9.97807,-20.6905 L -9.37994,-20.6905 L -9.37994,-20.6905 L -8.7588,-20.6905 L -8.16066,-20.7595 L -7.56253,-20.7825 L -6.94139,-20.8975 L -6.34326,-20.9666 L -5.74512,-21.0816 L -5.16999,-21.2196 L -4.59486,-21.3576 L -4.01973,-21.5187 L -3.49061,-21.6797 L -2.96149,-21.9328 L -2.43238,-22.1168 L -1.92626,-22.3699 L -1.46616,-22.6229 L -0.983049,-22.922 L -0.591961,-23.1981 L -0.154862,-23.4971 L 0.21322,-23.7962 L 0.581303,-24.1183 L 0.949386,-24.4403 L 1.24845,-24.8084 L 1.57053,-25.1535 L 1.80058,-25.5216 L 2.00762,-25.8667 L 2.21467,-26.2577 L 2.39871,-26.6718 L 2.51374,-27.0859 L 2.67477,-27.454 L 2.72078,-27.8451 L 2.74379,-28.2592 L 2.7668,-28.6733z"/>
    <path style="fill: #e7ecec" d="M 32.4665 -24.8544 L 32.4435,-25.3375 L 32.3745,-25.8206 L 32.2824,-26.2808 L 32.0984,-26.7869 L 31.8914,-27.224 L 31.6383,-27.6841 L 31.3162,-28.1212 L 30.9941,-28.5813 L 30.6261,-29.0184 L 30.189,-29.4325 L 29.7289,-29.8466 L 29.1997,-30.2606 L 28.6476,-30.6287 L 28.0495,-30.9968 L 27.4744,-31.3419 L 26.8072,-31.71 L 26.1171,-32.009 L 25.4269,-32.3081 L 24.6447,-32.6072 L 23.8625,-32.8602 L 23.1034,-33.1363 L 22.2752,-33.3203 L 21.424,-33.5504 L 20.5728,-33.7344 L 19.6986,-33.8725 L 18.8244,-34.0105 L 17.9042,-34.1255 L 16.984,-34.1945 L 16.0408,-34.2635 L 15.1436,-34.2866 L 14.2234,-34.3096 L 14.2234,-34.3096 L 13.3032,-34.2866 L 12.36,-34.2635 L 11.4397,-34.1945 L 10.5195,-34.1255 L 9.64534,-34.0105 L 8.74814,-33.8725 L 7.87395,-33.7344 L 7.02275,-33.5504 L 6.17156,-33.3203 L 5.34338,-33.1363 L 4.53819,-32.8602 L 3.80203,-32.6072 L 3.04286,-32.3081 L 2.30669,-32.009 L 1.61654,-31.71 L 0.972391,-31.3419 L 0.374257,-30.9968 L -0.223878,-30.6287 L -0.776002,-30.2606 L -1.28212,-29.8466 L -1.76523,-29.4325 L -2.17932,-29.0184 L -2.59341,-28.5813 L -2.91548,-28.1212 L -3.21455,-27.6841 L -3.49061,-27.224 L -3.67465,-26.7869 L -3.8587,-26.2808 L -3.95072,-25.8206 L -4.04274,-25.3375 L -4.06574,-24.8544 L -4.06574,-24.8544 L -4.04274,-24.3713 L -3.95072,-23.9112 L -3.8587,-23.4051 L -3.67465,-22.945 L -3.49061,-22.5079 L -3.21455,-22.0018 L -2.91548,-21.5647 L -2.59341,-21.1046 L -2.17932,-20.6675 L -1.76523,-20.2534 L -1.28212,-19.8393 L -0.776002,-19.4712 L -0.223878,-19.0571 L 0.374257,-18.689 L 0.972391,-18.344 L 1.61654,-18.0219 L 2.30669,-17.6768 L 3.04286,-17.3777 L 3.80203,-17.1017 L 4.53819,-16.8256 L 5.34338,-16.5956 L 6.17156,-16.3655 L 7.02275,-16.1815 L 7.87395,-15.9974 L 8.74814,-15.8134 L 9.64534,-15.7214 L 10.5195,-15.6063 L 11.4397,-15.4913 L 12.36,-15.4683 L 13.3032,-15.4453 L 14.2234,-15.4223 L 14.2234,-15.4223 L 15.1436,-15.4453 L 16.0408,-15.4683 L 16.984,-15.4913 L 17.9042,-15.6063 L 18.8244,-15.7214 L 19.6986,-15.8134 L 20.5728,-15.9974 L 21.424,-16.1815 L 22.2752,-16.3655 L 23.1034,-16.5956 L 23.8625,-16.8256 L 24.6447,-17.1017 L 25.4269,-17.3777 L 26.1171,-17.6768 L 26.8072,-18.0219 L 27.4744,-18.344 L 28.0495,-18.689 L 28.6476,-19.0571 L 29.1997,-19.4712 L 29.7289,-19.8393 L 30.189,-20.2534 L 30.6261,-20.6675 L 30.9941,-21.1046 L 31.3162,-21.5647 L 31.6383,-22.0018 L 31.8914,-22.5079 L 32.0984,-22.945 L 32.2824,-23.4051 L 32.3745,-23.9112 L 32.4435,-24.3713 L 32.4665,-24.8544z"/>
    <path style="fill: #e7ecec" d="M 42.4047 -46.4333 L 42.3817,-46.8014 L 42.3357,-47.1234 L 42.2667,-47.4915 L 42.1517,-47.8136 L 42.0136,-48.1357 L 41.8756,-48.4577 L 41.6455,-48.8028 L 41.4385,-49.1249 L 41.2084,-49.424 L 40.9324,-49.723 L 40.6333,-50.0221 L 40.2652,-50.3212 L 39.9202,-50.5742 L 39.5751,-50.8503 L 39.138,-51.1263 L 38.7009,-51.3794 L 38.2638,-51.5864 L 37.8497,-51.8165 L 37.3206,-52.0005 L 36.8145,-52.1846 L 36.3314,-52.3686 L 35.8022,-52.5527 L 35.2501,-52.6907 L 34.675,-52.8057 L 34.1229,-52.9438 L 33.5477,-52.9898 L 32.9726,-53.1048 L 32.3745,-53.1508 L 31.7993,-53.1738 L 31.2242,-53.2428 L 30.6031,-53.2428 L 30.6031,-53.2428 L 30.0049,-53.2428 L 29.4298,-53.1738 L 28.7857,-53.1508 L 28.2105,-53.1048 L 27.6124,-52.9898 L 27.0603,-52.9438 L 26.5311,-52.8057 L 25.956,-52.6907 L 25.4269,-52.5527 L 24.8978,-52.3686 L 24.3457,-52.1846 L 23.8625,-52.0005 L 23.3794,-51.8165 L 22.8963,-51.5864 L 22.5052,-51.3794 L 22.0451,-51.1263 L 21.654,-50.8503 L 21.263,-50.5742 L 20.9179,-50.3212 L 20.5728,-50.0221 L 20.2967,-49.723 L 19.9977,-49.424 L 19.7446,-49.1249 L 19.5376,-48.8028 L 19.3535,-48.4577 L 19.1695,-48.1357 L 19.0545,-47.8136 L 18.9164,-47.4915 L 18.8474,-47.1234 L 18.8474,-46.8014 L 18.8244,-46.4333 L 18.8244,-46.4333 L 18.8474,-46.0882 L 18.8474,-45.7661 L 18.9164,-45.3981 L 19.0545,-45.076 L 19.1695,-44.7539 L 19.3535,-44.3858 L 19.5376,-44.0868 L 19.7446,-43.7647 L 19.9977,-43.4656 L 20.2967,-43.1666 L 20.5728,-42.8445 L 20.9179,-42.5454 L 21.263,-42.3154 L 21.654,-42.0163 L 22.0451,-41.7632 L 22.5052,-41.5102 L 22.8963,-41.3031 L 23.3794,-41.0731 L 23.8625,-40.889 L 24.3457,-40.682 L 24.8978,-40.498 L 25.4269,-40.3369 L 25.956,-40.1989 L 26.5311,-40.0609 L 27.0603,-39.9458 L 27.6124,-39.8768 L 28.2105,-39.7618 L 28.7857,-39.7618 L 29.4298,-39.7158 L 30.0049,-39.6468 L 30.6031,-39.6468 L 30.6031,-39.6468 L 31.2242,-39.6468 L 31.7993,-39.7158 L 32.3745,-39.7618 L 32.9726,-39.7618 L 33.5477,-39.8768 L 34.1229,-39.9458 L 34.675,-40.0609 L 35.2501,-40.1989 L 35.8022,-40.3369 L 36.3314,-40.498 L 36.8145,-40.682 L 37.3206,-40.889 L 37.8497,-41.0731 L 38.2638,-41.3031 L 38.7009,-41.5102 L 39.138,-41.7632 L 39.5751,-42.0163 L 39.9202,-42.3154 L 40.2652,-42.5454 L 40.6333,-42.8445 L 40.9324,-43.1666 L 41.2084,-43.4656 L 41.4385,-43.7647 L 41.6455,-44.0868 L 41.8756,-44.3858 L 42.0136,-44.7539 L 42.1517,-45.076 L 42.2667,-45.3981 L 42.3357,-45.7661 L 42.3817,-46.0882 L 42.4047,-46.4333z"/>
    <path style="fill: #e7ecec" d="M 45.4414 -37.3462 L 45.4184,-37.7143 L 45.3724,-38.0364 L 45.3264,-38.3815 L 45.2344,-38.7496 L 45.0733,-39.0486 L 44.9353,-39.3937 L 44.7512,-39.7388 L 44.4982,-40.0609 L 44.2681,-40.3599 L 44.0151,-40.659 L 43.716,-40.9581 L 43.3939,-41.2341 L 43.0489,-41.5102 L 42.7038,-41.7862 L 42.2897,-42.0393 L 41.8986,-42.3154 L 41.4845,-42.5224 L 41.0014,-42.7525 L 40.5413,-42.9365 L 40.0812,-43.1205 L 39.5751,-43.2816 L 39.046,-43.4886 L 38.5168,-43.6267 L 37.9647,-43.7417 L 37.4586,-43.8337 L 36.8835,-43.9487 L 36.3314,-44.0408 L 35.7562,-44.0868 L 35.1811,-44.1098 L 34.606,-44.1788 L 34.0308,-44.1788 L 34.0308,-44.1788 L 33.4557,-44.1788 L 32.8806,-44.1098 L 32.3054,-44.0868 L 31.7303,-44.0408 L 31.1782,-43.9487 L 30.6031,-43.8337 L 30.0739,-43.7417 L 29.4988,-43.6267 L 28.9697,-43.4886 L 28.4636,-43.2816 L 28.0035,-43.1205 L 27.4744,-42.9365 L 27.0143,-42.7525 L 26.5772,-42.5224 L 26.1401,-42.3154 L 25.749,-42.0393 L 25.3349,-41.7862 L 24.9668,-41.5102 L 24.6447,-41.2341 L 24.3226,-40.9581 L 24.0236,-40.659 L 23.7475,-40.3599 L 23.5175,-40.0609 L 23.2874,-39.7388 L 23.1264,-39.3937 L 22.9423,-39.0486 L 22.8503,-38.7496 L 22.7123,-38.3815 L 22.6433,-38.0364 L 22.5973,-37.7143 L 22.5973,-37.3462 L 22.5973,-37.3462 L 22.5973,-37.0242 L 22.6433,-36.6561 L 22.7123,-36.311 L 22.8503,-35.9889 L 22.9423,-35.6439 L 23.1264,-35.2988 L 23.2874,-34.9997 L 23.5175,-34.6546 L 23.7475,-34.3326 L 24.0236,-34.0335 L 24.3226,-33.7344 L 24.6447,-33.4584 L 24.9668,-33.1823 L 25.3349,-32.9292 L 25.749,-32.6762 L 26.1401,-32.4231 L 26.5772,-32.1701 L 27.0143,-31.986 L 27.4744,-31.756 L 28.0035,-31.5719 L 28.4636,-31.4109 L 28.9697,-31.2499 L 29.4988,-31.1118 L 30.0739,-30.9968 L 30.6031,-30.8588 L 31.1782,-30.7438 L 31.7303,-30.6977 L 32.3054,-30.6287 L 32.8806,-30.5827 L 33.4557,-30.5597 L 34.0308,-30.5597 L 34.0308,-30.5597 L 34.606,-30.5597 L 35.1811,-30.5827 L 35.7562,-30.6287 L 36.3314,-30.6977 L 36.8835,-30.7438 L 37.4586,-30.8588 L 37.9647,-30.9968 L 38.5168,-31.1118 L 39.046,-31.2499 L 39.5751,-31.4109 L 40.0812,-31.5719 L 40.5413,-31.756 L 41.0014,-31.986 L 41.4845,-32.1701 L 41.8986,-32.4231 L 42.2897,-32.6762 L 42.7038,-32.9292 L 43.0489,-33.1823 L 43.3939,-33.4584 L 43.716,-33.7344 L 44.0151,-34.0335 L 44.2681,-34.3326 L 44.4982,-34.6546 L 44.7512,-34.9997 L 44.9353,-35.2988 L 45.0733,-35.6439 L 45.2344,-35.9889 L 45.3264,-36.311 L 45.3724,-36.6561 L 45.4184,-37.0242 L 45.4414,-37.3462z"/>
    <path style="fill: #e7ecec" d="M 43.1639 -29.7545 L 43.1409,-30.3757 L 43.0949,-30.9508 L 43.0259,-31.4799 L 42.9568,-32.032 L 42.7958,-32.6302 L 42.6808,-33.1593 L 42.4507,-33.7344 L 42.2437,-34.2635 L 41.9906,-34.7697 L 41.7606,-35.2988 L 41.4385,-35.7819 L 41.1164,-36.265 L 40.7944,-36.7481 L 40.4263,-37.1852 L 40.0582,-37.5993 L 39.6211,-38.0134 L 39.207,-38.3815 L 38.7239,-38.7726 L 38.2638,-39.0946 L 37.8037,-39.4397 L 37.2746,-39.7388 L 36.7915,-39.9688 L 36.2393,-40.1989 L 35.6872,-40.4059 L 35.1811,-40.636 L 34.606,-40.774 L 34.0538,-40.912 L 33.5017,-41.0271 L 32.9036,-41.0731 L 32.3515,-41.0961 L 31.7533,-41.1191 L 31.7533,-41.1191 L 31.1782,-41.0961 L 30.6031,-41.0731 L 30.0279,-41.0271 L 29.4758,-40.912 L 28.9007,-40.774 L 28.3486,-40.636 L 27.7734,-40.4059 L 27.2443,-40.1989 L 26.6922,-39.9688 L 26.1861,-39.7388 L 25.726,-39.4397 L 25.1968,-39.0946 L 24.7367,-38.7726 L 24.3226,-38.3815 L 23.8625,-38.0134 L 23.4485,-37.5993 L 23.0804,-37.1852 L 22.6893,-36.7481 L 22.3672,-36.265 L 22.0451,-35.7819 L 21.7461,-35.2988 L 21.47,-34.7697 L 21.24,-34.2635 L 21.0099,-33.7344 L 20.8489,-33.1593 L 20.6648,-32.6302 L 20.5728,-32.032 L 20.4348,-31.4799 L 20.3658,-30.9508 L 20.3197,-30.3757 L 20.2967,-29.7545 L 20.2967,-29.7545 L 20.3197,-29.1794 L 20.3658,-28.6043 L 20.4348,-28.0752 L 20.5728,-27.5 L 20.6648,-26.9249 L 20.8489,-26.3958 L 21.0099,-25.8206 L 21.24,-25.2685 L 21.47,-24.7854 L 21.7461,-24.2333 L 22.0451,-23.7732 L 22.3672,-23.2671 L 22.6893,-22.807 L 23.0804,-22.3699 L 23.4485,-21.9558 L 23.8625,-21.5417 L 24.3226,-21.1736 L 24.7367,-20.7825 L 25.1968,-20.4604 L 25.726,-20.1154 L 26.1861,-19.8163 L 26.6922,-19.5862 L 27.2443,-19.3562 L 27.7734,-19.1031 L 28.3486,-18.9191 L 28.9007,-18.7811 L 29.4758,-18.643 L 30.0279,-18.528 L 30.6031,-18.482 L 31.1782,-18.436 L 31.7533,-18.436 L 31.7533,-18.436 L 32.3515,-18.436 L 32.9036,-18.482 L 33.5017,-18.528 L 34.0538,-18.643 L 34.606,-18.7811 L 35.1811,-18.9191 L 35.6872,-19.1031 L 36.2393,-19.3562 L 36.7915,-19.5862 L 37.2746,-19.8163 L 37.8037,-20.1154 L 38.2638,-20.4604 L 38.7239,-20.7825 L 39.207,-21.1736 L 39.6211,-21.5417 L 40.0582,-21.9558 L 40.4263,-22.3699 L 40.7944,-22.807 L 41.1164,-23.2671 L 41.4385,-23.7732 L 41.7606,-24.2333 L 41.9906,-24.7854 L 42.2437,-25.2685 L 42.4507,-25.8206 L 42.6808,-26.3958 L 42.7958,-26.9249 L 42.9568,-27.5 L 43.0259,-28.0752 L 43.0949,-28.6043 L 43.1409,-29.1794 L 43.1639,-29.7545z"/>
    <path style="fill: #e7ecec" d="M 33.2487 -36.6101 L 33.2257,-37.1852 L 33.1336,-37.7603 L 32.9956,-38.3355 L 32.7655,-38.8876 L 32.5125,-39.4397 L 32.1904,-40.0148 L 31.7993,-40.521 L 31.3622,-41.0731 L 30.9021,-41.6252 L 30.35,-42.0853 L 29.7749,-42.6144 L 29.1077,-43.0745 L 28.3946,-43.5346 L 27.6354,-43.9717 L 26.8992,-44.4088 L 26.048,-44.8229 L 25.1738,-45.237 L 24.2766,-45.5591 L 23.2874,-45.9042 L 22.3212,-46.2262 L 21.309,-46.5253 L 20.2967,-46.8014 L 19.1925,-47.0084 L 18.0882,-47.2385 L 16.984,-47.4225 L 15.8797,-47.5605 L 14.7295,-47.6986 L 13.5332,-47.8136 L 12.383,-47.8596 L 11.1867,-47.9286 L 10.0134,-47.9516 L 10.0134,-47.9516 L 8.86317,-47.9286 L 7.6669,-47.8596 L 6.51664,-47.8136 L 5.34338,-47.6986 L 4.19312,-47.5605 L 3.06586,-47.4225 L 1.93861,-47.2385 L 0.857365,-47.0084 L -0.200873,-46.8014 L -1.25911,-46.5253 L -2.27134,-46.2262 L -3.23756,-45.9042 L -4.18077,-45.5591 L -5.07797,-45.237 L -5.95217,-44.8229 L -6.80336,-44.4088 L -7.58554,-43.9717 L -8.34471,-43.5346 L -9.03486,-43.0745 L -9.67901,-42.6144 L -10.2541,-42.0853 L -10.8063,-41.6252 L -11.3124,-41.0731 L -11.7265,-40.521 L -12.1406,-40.0148 L -12.4626,-39.4397 L -12.7157,-38.8876 L -12.9457,-38.3355 L -13.0608,-37.7603 L -13.1528,-37.1852 L -13.1988,-36.6101 L -13.1988,-36.6101 L -13.1528,-36.0349 L -13.0608,-35.4598 L -12.9457,-34.8847 L -12.7157,-34.3096 L -12.4626,-33.7574 L -12.1406,-33.2053 L -11.7265,-32.6762 L -11.3124,-32.1471 L -10.8063,-31.5949 L -10.2541,-31.1118 L -9.67901,-30.6057 L -9.03486,-30.1226 L -8.34471,-29.6855 L -7.58554,-29.2254 L -6.80336,-28.7883 L -5.95217,-28.3972 L -5.07797,-27.9831 L -4.18077,-27.6381 L -3.23756,-27.293 L -2.27134,-26.9709 L -1.25911,-26.6718 L -0.200873,-26.4188 L 0.857365,-26.1657 L 1.93861,-25.9587 L 3.06586,-25.7976 L 4.19312,-25.6366 L 5.34338,-25.5216 L 6.51664,-25.3836 L 7.6669,-25.3375 L 8.86317,-25.2685 L 10.0134,-25.2455 L 10.0134,-25.2455 L 11.1867,-25.2685 L 12.383,-25.3375 L 13.5332,-25.3836 L 14.7295,-25.5216 L 15.8797,-25.6366 L 16.984,-25.7976 L 18.0882,-25.9587 L 19.1925,-26.1657 L 20.2967,-26.4188 L 21.309,-26.6718 L 22.3212,-26.9709 L 23.2874,-27.293 L 24.2766,-27.6381 L 25.1738,-27.9831 L 26.048,-28.3972 L 26.8992,-28.7883 L 27.6354,-29.2254 L 28.3946,-29.6855 L 29.1077,-30.1226 L 29.7749,-30.6057 L 30.35,-31.1118 L 30.9021,-31.5949 L 31.3622,-32.1471 L 31.7993,-32.6762 L 32.1904,-33.2053 L 32.5125,-33.7574 L 32.7655,-34.3096 L 32.9956,-34.8847 L 33.1336,-35.4598 L 33.2257,-36.0349 L 33.2487,-36.6101z"/>
    <path style="fill: #e7ecec" d="M 14.2464 -49.447 L 29.7979,-51.4714 L 29.5908,-51.9545 L 29.3608,-52.3686 L 29.1077,-52.8057 L 28.7626,-53.2428 L 28.4176,-53.6339 L 28.0495,-54.002 L 27.6124,-54.4391 L 27.1753,-54.7842 L 26.6462,-55.1523 L 26.1401,-55.4973 L 25.5879,-55.8654 L 25.0128,-56.1645 L 24.3917,-56.4635 L 23.7475,-56.7396 L 23.1264,-57.0157 L 22.4132,-57.2227 L 21.7231,-57.4758 L 20.9869,-57.6598 L 20.2737,-57.8669 L 19.4916,-58.0279 L 18.7554,-58.1659 L 17.9732,-58.281 L 17.145,-58.373 L 16.3629,-58.465 L 15.5577,-58.488 L 14.7755,-58.511 L 13.9703,-58.511 L 13.1421,-58.488 L 12.3369,-58.465 L 11.5318,-58.419 L 10.7726,-58.327 L 9.96742,-58.1889 L 9.18524,-58.0509 L 8.44907,-57.8899 L 7.6899,-57.7518 L 6.97674,-57.5448 L 6.26358,-57.3147 L 5.59643,-57.0847 L 4.88327,-56.8546 L 4.23913,-56.5556 L 3.64099,-56.2565 L 3.04286,-55.9114 L 2.49073,-55.5894 L 1.93861,-55.2673 L 1.4555,-54.8992 L 0.995396,-54.5541 L 0.535293,-54.14 L 0.16721,-53.7489 L -0.200873,-53.3348 L -0.545951,-52.9438 L -0.845018,-52.4837 L -1.05206,-52.0466 L -1.28212,-51.6095 L -1.46616,-51.1494 L 14.2464,-49.447z"/>
    <path style="fill: none; fill-opacity:0; stroke-width: 0.02; stroke: #5a777a" d="M 29.7979 -51.4484 L 29.5908,-51.9085 L 29.3608,-52.3686 L 29.1077,-52.7597 L 28.7396,-53.1968 L 28.3946,-53.6109 L 28.0495,-54.025 L 27.6124,-54.4161 L 27.1753,-54.7612 L 26.6462,-55.1523 L 26.1401,-55.4973 L 25.5879,-55.8654 L 24.9898,-56.1645 L 24.3687,-56.4635 L 23.7475,-56.7396 L 23.1264,-57.0157 L 22.4362,-57.2227 L 21.7231,-57.4758 L 21.0099,-57.6598 L 20.2737,-57.8669 L 19.4916,-58.0279 L 18.7094,-58.1659 L 17.9502,-58.281 L 17.145,-58.373 L 16.3399,-58.465 L 15.5347,-58.488 L 14.7525,-58.511 L 13.9473,-58.511 L 13.1421,-58.488 L 12.3369,-58.465 L 11.5778,-58.373 L 10.7726,-58.304 L 9.96742,-58.1889 L 9.18524,-58.0739 L 8.47208,-57.8899 L 7.6899,-57.7518 L 6.99975,-57.4988 L 6.24058,-57.3147 L 5.57343,-57.0617 L 4.88327,-56.8316 L 4.21612,-56.5556 L 3.61799,-56.2105 L 3.04286,-55.9114 L 2.46773,-55.5894 L 1.93861,-55.2673 L 1.4555,-54.8992 L 1.0184,-54.5311 L 0.558298,-54.14 L 0.16721,-53.7259 L -0.200873,-53.3348 L -0.545951,-52.9438 L -0.799007,-52.4837 L -1.05206,-52.0466 L -1.28212,-51.5864 L -1.46616,-51.1494"/>
    <path style="fill: #e7ecec" d="M -6.73434 -44.938 L 0.581303,-52.0235 L 0.144205,-52.2996 L -0.361909,-52.5757 L -0.891028,-52.8057 L -1.37414,-52.9898 L -1.92626,-53.1968 L -2.45538,-53.3809 L -3.03051,-53.5419 L -3.58263,-53.6339 L -4.18077,-53.7489 L -4.7559,-53.864 L -5.35403,-53.91 L -5.92916,-53.979 L -6.50429,-53.979 L -7.12543,-53.979 L -7.70056,-53.956 L -8.3217,-53.887 L -8.89683,-53.841 L -9.47196,-53.7259 L -10.0701,-53.6109 L -10.6222,-53.4499 L -11.1513,-53.3118 L -11.7035,-53.1278 L -12.2326,-52.9438 L -12.7617,-52.7137 L -13.2678,-52.4376 L -13.7739,-52.1846 L -14.211,-51.9085 L -14.6711,-51.6095 L -15.0852,-51.2874 L -15.4993,-50.9883 L -15.8904,-50.6432 L -16.2355,-50.2752 L -16.5806,-49.8841 L -16.8796,-49.516 L -17.1557,-49.1249 L -17.4318,-48.6878 L -17.6618,-48.2507 L -17.8919,-47.8366 L -18.0529,-47.3995 L -18.2139,-46.9624 L -18.3059,-46.5253 L -18.444,-46.0882 L -18.49,-45.6281 L -18.536,-45.191 L -18.536,-44.7079 L -18.513,-44.2478 L -18.444,-43.7877 L -18.329,-43.3506 L -6.73434,-44.938z"/>
    <path style="fill: none; fill-opacity:0; stroke-width: 0.02; stroke: #5a777a" d="M 0.581303 -52.0005 L 0.144205,-52.2766 L -0.361909,-52.5527 L -0.891028,-52.7597 L -1.37414,-52.9898 L -1.92626,-53.1968 L -2.47839,-53.3809 L -3.03051,-53.5419 L -3.60564,-53.6339 L -4.18077,-53.7719 L -4.7559,-53.864 L -5.35403,-53.91 L -5.95217,-53.979 L -6.50429,-53.979 L -7.12543,-53.979 L -7.70056,-53.979 L -8.3217,-53.887 L -8.89683,-53.841 L -9.42595,-53.7259 L -10.0471,-53.6109 L -10.5762,-53.4499 L -11.1513,-53.3118 L -11.6805,-53.1278 L -12.2096,-52.9438 L -12.7387,-52.6907 L -13.2678,-52.4376 L -13.7049,-52.1846 L -14.211,-51.9085 L -14.6481,-51.6555 L -15.0852,-51.3104 L -15.4993,-50.9883 L -15.8674,-50.6432 L -16.2355,-50.2752 L -16.5576,-49.8841 L -16.8796,-49.516 L -17.1557,-49.1249 L -17.4318,-48.6878 L -17.6618,-48.2737 L -17.8689,-47.8366 L -18.0299,-47.4225 L -18.2139,-46.9624 L -18.2829,-46.5253 L -18.444,-46.0882 L -18.49,-45.6281 L -18.536,-45.191 L -18.536,-44.6849 L -18.49,-44.2478 L -18.444,-43.7877 L -18.329,-43.3736"/>
    <path style="fill: #e7ecec" d="M -9.03486 -29.0184 L -21.5497,-29.2714 L -21.5497,-28.8343 L -21.5037,-28.4202 L -21.4577,-28.0061 L -21.3656,-27.569 L -21.2506,-27.1549 L -21.0896,-26.7869 L -20.8825,-26.3728 L -20.6755,-25.9587 L -20.4224,-25.5676 L -20.1464,-25.2225 L -19.8473,-24.8314 L -19.4792,-24.4863 L -19.1341,-24.1183 L -18.7661,-23.7962 L -18.329,-23.4741 L -17.8919,-23.152 L -17.4318,-22.853 L -16.9716,-22.6229 L -16.4655,-22.3469 L -15.9364,-22.0708 L -15.3843,-21.8868 L -14.8322,-21.6567 L -14.257,-21.4957 L -13.6819,-21.3346 L -13.0608,-21.1736 L -12.4856,-21.0356 L -11.8645,-20.9205 L -11.2664,-20.8285 L -10.6222,-20.7825 L -9.95507,-20.7365 L -9.33393,-20.6905 L -8.71279,-20.6905 L -8.06864,-20.7365 L -7.4475,-20.7825 L -6.80336,-20.8285 L -6.15921,-20.9205 L -5.56108,-21.0356 L -4.96294,-21.1736 L -4.36481,-21.3346 L -3.78968,-21.4727 L -3.19155,-21.6567 L -2.66243,-21.8868 L -2.1103,-22.0708 L -1.58118,-22.3239 L -1.05206,-22.5769 L -9.03486,-29.0184z"/>
    <path style="fill: none; fill-opacity:0; stroke-width: 0.02; stroke: #5a777a" d="M -21.5497 -29.2714 L -21.5497,-28.8343 L -21.5037,-28.4202 L -21.4577,-28.0291 L -21.3426,-27.592 L -21.2046,-27.178 L -21.0896,-26.7869 L -20.8595,-26.3728 L -20.6295,-25.9587 L -20.4224,-25.5906 L -20.1234,-25.2225 L -19.8243,-24.8544 L -19.5252,-24.5094 L -19.1341,-24.1413 L -18.7891,-23.7962 L -18.329,-23.4971 L -17.9149,-23.152 L -17.4318,-22.899 L -16.9716,-22.6229 L -16.4655,-22.3699 L -15.9364,-22.0938 L -15.3843,-21.8868 L -14.8092,-21.6567 L -14.257,-21.4957 L -13.6589,-21.3346 L -13.0608,-21.1966 L -12.4626,-21.0586 L -11.8645,-20.9666 L -11.2204,-20.8975 L -10.5532,-20.7825 L -9.93206,-20.7595 L -9.31092,-20.7365 L -8.68978,-20.7365 L -8.06864,-20.7595 L -7.4475,-20.7825 L -6.78035,-20.8975 L -6.15921,-20.9666 L -5.56108,-21.0586 L -4.96294,-21.1966 L -4.34181,-21.3346 L -3.74367,-21.4957 L -3.19155,-21.6567 L -2.61642,-21.8868 L -2.0873,-22.0938 L -1.55818,-22.3699 L -1.02906,-22.6229"/>
    <path style="fill: #e7ecec" d="M 30.6031 -46.4333 L 41.7606,-44.2248 L 41.9216,-44.5699 L 42.1057,-44.9149 L 42.1977,-45.237 L 42.2897,-45.5591 L 42.3587,-45.9272 L 42.4047,-46.2492 L 42.4047,-46.6173 L 42.3587,-46.9624 L 42.2897,-47.3075 L 42.1977,-47.6756 L 42.0826,-47.9976 L 41.9216,-48.3427 L 41.7606,-48.6878 L 41.5535,-48.9869 L 41.3005,-49.3089 L 41.0014,-49.608 L 40.7253,-49.9301 L 40.4263,-50.2291 L 40.0812,-50.5052 L 39.6671,-50.7583 L 39.276,-51.0343 L 38.8849,-51.2874 L 38.4248,-51.5404 L 37.9417,-51.7245 L 37.5046,-51.9775 L 36.9755,-52.1386 L 36.4464,-52.3226 L 35.9173,-52.4837 L 35.3651,-52.6677 L 34.813,-52.7597 L 34.2379,-52.8747 L 33.6628,-52.9898 L 33.0876,-53.0588 L 32.4895,-53.1508 L 31.8914,-53.1738 L 31.2932,-53.1968 L 30.6721,-53.2428 L 30.0739,-53.2428 L 29.4988,-53.1968 L 28.9007,-53.1508 L 28.3025,-53.1048 L 27.7044,-52.9898 L 27.1293,-52.9438 L 26.5542,-52.8287 L 30.6031,-46.4333z"/>
    <path style="fill: none; fill-opacity:0; stroke-width: 0.02; stroke: #5a777a" d="M 41.7146 -44.2478 L 41.8986,-44.5699 L 42.0596,-44.938 L 42.1747,-45.237 L 42.2667,-45.5821 L 42.3357,-45.9502 L 42.3587,-46.2723 L 42.3587,-46.6403 L 42.3357,-46.9854 L 42.2667,-47.3535 L 42.1517,-47.6756 L 42.0596,-47.9976 L 41.8986,-48.3657 L 41.6916,-48.6878 L 41.5075,-48.9869 L 41.2775,-49.3089 L 40.9784,-49.654 L 40.7023,-49.9531 L 40.3803,-50.2521 L 40.0352,-50.5282 L 39.6441,-50.7583 L 39.253,-51.0343 L 38.7929,-51.2874 L 38.3788,-51.5174 L 37.8957,-51.7245 L 37.4126,-52.0005 L 36.9525,-52.1386 L 36.4234,-52.3686 L 35.8943,-52.4837 L 35.3191,-52.6907 L 34.79,-52.7597 L 34.2149,-52.8747 L 33.6628,-52.9898 L 33.0646,-53.1048 L 32.4665,-53.1508 L 31.8683,-53.1968 L 31.2702,-53.2428 L 30.6491,-53.2428 L 30.0739,-53.2428 L 29.4758,-53.1968 L 28.9007,-53.1508 L 28.3025,-53.1048 L 27.7044,-53.0128 L 27.1063,-52.9438 L 26.5542,-52.8517"/>
    <path style="fill: #e7ecec" d="M 32.5125 -37.3462 L 44.4522,-34.4016 L 44.6822,-34.7467 L 44.8663,-35.1377 L 45.0733,-35.5058 L 45.2344,-35.8739 L 45.3264,-36.265 L 45.3954,-36.6331 L 45.4414,-37.0242 L 45.4644,-37.4383 L 45.4414,-37.8063 L 45.3724,-38.1974 L 45.3034,-38.6115 L 45.1653,-38.9566 L 45.0273,-39.3477 L 44.8203,-39.7388 L 44.5672,-40.0609 L 44.3141,-40.4519 L 44.0611,-40.797 L 43.716,-41.1651 L 43.3709,-41.4872 L 43.0259,-41.7862 L 32.5125,-37.3462z"/>
    <path style="fill: none; fill-opacity:0; stroke-width: 0.02; stroke: #5a777a" d="M 44.4292 -34.4246 L 44.6822,-34.7697 L 44.8893,-35.1838 L 45.0503,-35.5518 L 45.2344,-35.9429 L 45.3264,-36.334 L 45.3954,-36.7711 L 45.4414,-37.1852 L 45.4414,-37.5993 L 45.3724,-38.0364 L 45.3264,-38.4275 L 45.2344,-38.7956 L 45.0273,-39.2097 L 44.8433,-39.6238 L 44.6592,-40.0148 L 44.4062,-40.3599 L 44.0841,-40.728 L 43.739,-41.0961 L 43.3709,-41.4642 L 42.9798,-41.7862"/>
    <path style="fill: #e7ecec" d="M 32.0984 -29.4095 L 28.2795,-18.344 L 28.8317,-18.1829 L 29.4298,-18.0219 L 30.0279,-17.9069 L 30.6031,-17.7688 L 31.2242,-17.7688 L 31.7993,-17.7228 L 32.3975,-17.7228 L 33.0186,-17.7688 L 33.6167,-17.7688 L 34.2149,-17.9069 L 34.813,-18.0219 L 35.3881,-18.1829 L 35.9633,-18.344 L 36.5154,-18.551 L 37.0905,-18.7811 L 37.6196,-19.0571 L 38.1488,-19.3562 L 38.6779,-19.6783 L 39.184,-20.0463 L 39.6441,-20.3914 L 40.1042,-20.7825 L 40.5183,-21.2196 L 40.9554,-21.6567 L 41.3235,-22.1168 L 41.6686,-22.6229 L 42.0136,-23.083 L 42.3587,-23.6122 L 42.6578,-24.1413 L 42.9108,-24.6704 L 43.0949,-25.2455 L 43.3249,-25.8206 L 43.486,-26.3958 L 43.624,-26.9709 L 43.739,-27.546 L 43.831,-28.1212 L 43.8771,-28.7423 L 43.8771,-29.3634 L 43.8771,-29.9616 L 43.831,-30.5597 L 43.785,-31.1348 L 43.647,-31.71 L 43.532,-32.3081 L 43.3479,-32.9062 L 32.0984,-29.4095z"/>
    <path style="fill: none; fill-opacity:0; stroke-width: 0.02; stroke: #5a777a" d="M 28.2565 -18.344 L 28.8317,-18.1599 L 29.4298,-18.0449 L 30.0279,-17.9069 L 30.5801,-17.7688 L 31.2012,-17.7458 L 31.7993,-17.7228 L 32.3745,-17.7228 L 32.9956,-17.7458 L 33.5937,-17.7688 L 34.2149,-17.9069 L 34.79,-18.0449 L 35.3651,-18.1599 L 35.9403,-18.344 L 36.4924,-18.551 L 37.0675,-18.7811 L 37.5736,-19.0571 L 38.1488,-19.3562 L 38.6779,-19.6783 L 39.138,-20.0463 L 39.6211,-20.3684 L 40.1042,-20.7825 L 40.4953,-21.2196 L 40.9324,-21.6567 L 41.3005,-22.0938 L 41.6455,-22.6229 L 41.9906,-23.083 L 42.3357,-23.5661 L 42.6348,-24.1413 L 42.8648,-24.6704 L 43.0949,-25.2225 L 43.3019,-25.8206 L 43.486,-26.3728 L 43.624,-26.9479 L 43.739,-27.546 L 43.831,-28.1212 L 43.8771,-28.7423 L 43.8771,-29.3634 L 43.8771,-29.9616 L 43.831,-30.5597 L 43.785,-31.1348 L 43.647,-31.71 L 43.532,-32.3081 L 43.3479,-32.8832"/>
    <path style="fill: #e7ecec" d="M -17.7538 -35.8739 L -18.3059,-43.3736 L -18.743,-43.3506 L -19.1341,-43.2816 L -19.5942,-43.2126 L -19.9853,-43.0975 L -20.3994,-42.9825 L -20.7905,-42.8905 L -21.1586,-42.7525 L -21.5497,-42.5914 L -21.9178,-42.3844 L -22.2628,-42.2003 L -22.6079,-41.9703 L -22.999,-41.7632 L -23.3211,-41.4872 L -23.6201,-41.2341 L -23.9192,-40.9811 L -24.1953,-40.682 L -24.4483,-40.3829 L -24.7014,-40.0609 L -24.9084,-39.7618 L -25.1385,-39.4397 L -25.3225,-39.0946 L -25.4836,-38.7726 L -25.6446,-38.4275 L -25.7596,-38.0364 L -25.9207,-37.6683 L -25.9897,-37.3002 L -26.0357,-36.9091 L -26.0817,-36.5181 L -26.1507,-36.173 L -26.1507,-35.7819 L -26.1047,-35.4138 L -26.0817,-35.0227 L -26.0127,-34.6316 L -25.9437,-34.2866 L -25.8747,-33.9185 L -25.7136,-33.5734 L -25.5986,-33.1823 L -25.4376,-32.8372 L -25.2305,-32.4691 L -25.0695,-32.1471 L -24.8394,-31.848 L -24.5864,-31.5259 L -24.3563,-31.2039 L -24.0572,-30.9048 L -23.7812,-30.6287 L -23.4821,-30.3757 L -23.183,-30.1226 L -22.861,-29.8696 L -22.5389,-29.6625 L -22.1938,-29.4095 L -21.8257,-29.2714 L -21.4116,-29.0874 L -17.7538,-35.8739z"/>
    <path style="fill: none; fill-opacity:0; stroke-width: 0.02; stroke: #5a777a" d="M -18.329 -43.3736 L -18.7891,-43.3276 L -19.1571,-43.2816 L -19.6172,-43.2126 L -19.9853,-43.1205 L -20.3994,-43.0285 L -20.7905,-42.8905 L -21.1356,-42.7065 L -21.5497,-42.5454 L -21.9178,-42.3614 L -22.2628,-42.2003 L -22.6079,-42.0163 L -22.976,-41.7632 L -23.3211,-41.4872 L -23.5971,-41.2341 L -23.9192,-40.9811 L -24.1723,-40.728 L -24.4483,-40.3829 L -24.7014,-40.0609 L -24.9084,-39.7618 L -25.1385,-39.4397 L -25.3225,-39.0946 L -25.4836,-38.7726 L -25.6446,-38.3815 L -25.7826,-38.0364 L -25.8977,-37.6683 L -25.9897,-37.3002 L -26.0357,-36.9091 L -26.0817,-36.4951 L -26.1507,-36.173 L -26.1507,-35.7819 L -26.1507,-35.4138 L -26.0587,-35.0227 L -26.0127,-34.6086 L -25.9667,-34.2635 L -25.8516,-33.8955 L -25.7136,-33.5504 L -25.5756,-33.1823 L -25.4376,-32.8142 L -25.2765,-32.4461 L -25.0695,-32.1471 L -24.8394,-31.825 L -24.5864,-31.4799 L -24.3333,-31.1579 L -24.0572,-30.8818 L -23.7812,-30.6057 L -23.4821,-30.3757 L -23.183,-30.0996 L -22.861,-29.8466 L -22.5389,-29.6165 L -22.1938,-29.4095 L -21.8257,-29.2484 L -21.4116,-29.0874"/>
    <path style="fill: #e7ecec" d="M 13.8093 -23.7042 L -3.95072,-22.853 L -3.8587,-22.4619 L -3.67465,-22.0478 L -3.49061,-21.6567 L -3.23756,-21.2196 L -2.93849,-20.8055 L -2.61642,-20.4144 L -2.22533,-20.0694 L -1.81124,-19.6783 L -1.32813,-19.3332 L -0.868023,-18.9651 L -0.338904,-18.62 L 0.236226,-18.321 L 0.857365,-18.0219 L 1.50151,-17.7228 L 2.16866,-17.4468 L 2.83581,-17.1477 L 3.59498,-16.8946 L 4.33115,-16.6646 L 5.09032,-16.4805 L 5.9185,-16.2505 L 6.74669,-16.0895 L 7.57488,-15.9054 L 8.42607,-15.7904 L 9.30027,-15.6754 L 10.1745,-15.5833 L 11.0717,-15.4913 L 11.9459,-15.4683 L 12.8431,-15.4453 L 13.7403,-15.4223 L 14.6375,-15.4223 L 15.5347,-15.4683 L 16.4549,-15.4913 L 17.3521,-15.5833 L 18.2263,-15.6524 L 19.1005,-15.7674 L 19.9517,-15.9054 L 20.7799,-16.0434 L 21.585,-16.2275 L 22.3902,-16.4345 L 23.1954,-16.6186 L 23.9546,-16.8716 L 24.6677,-17.1017 L 25.4039,-17.3777 L 26.048,-17.6538 L 26.6922,-17.9299 L 27.2903,-18.2519 L 27.8654,-18.597 L 28.3946,-18.9191 L 28.9237,-19.2642 L 29.4068,-19.6323 L 29.8209,-20.0233 L 30.189,-20.3454 L 30.5571,-20.7595 L 30.8561,-21.1736 L 13.8093,-23.7042z"/>
    <path style="fill: none; fill-opacity:0; stroke-width: 0.02; stroke: #5a777a" d="M -3.95072 -22.899 L -3.8587,-22.4849 L -3.65165,-22.0478 L -3.49061,-21.6567 L -3.21455,-21.2426 L -2.93849,-20.8285 L -2.61642,-20.4834 L -2.17932,-20.0694 L -1.81124,-19.7013 L -1.32813,-19.3562 L -0.868023,-19.0111 L -0.292894,-18.666 L 0.236226,-18.344 L 0.857365,-18.0449 L 1.54752,-17.7458 L 2.16866,-17.4468 L 2.83581,-17.1937 L 3.57198,-16.9176 L 4.33115,-16.7106 L 5.09032,-16.4805 L 5.9185,-16.3195 L 6.74669,-16.1585 L 7.59788,-15.9514 L 8.42607,-15.8134 L 9.32327,-15.7214 L 10.1975,-15.6063 L 11.0947,-15.5143 L 11.9459,-15.4913 L 12.8431,-15.4683 L 13.7403,-15.4683 L 14.6375,-15.4683 L 15.5347,-15.4683 L 16.4549,-15.5143 L 17.3521,-15.6063 L 18.2493,-15.7214 L 19.1235,-15.8134 L 19.9747,-15.9514 L 20.8029,-16.0895 L 21.631,-16.2505 L 22.4132,-16.4805 L 23.1954,-16.6646 L 23.9776,-16.8946 L 24.6677,-17.1707 L 25.3809,-17.4468 L 26.048,-17.6768 L 26.6692,-17.9759 L 27.2673,-18.321 L 27.8654,-18.62 L 28.3946,-18.9421 L 28.9237,-19.3102 L 29.4298,-19.6323 L 29.7979,-20.0463 L 30.189,-20.3684 L 30.5571,-20.7825 L 30.8561,-21.1966"/>
  </g>
  <g>
    <rect style="fill: #000000" x="435.389" y="245.821" width="645.7" height="134"/>
    <rect style="fill: none; fill-opacity:0; stroke-width: 2; stroke: #000000" x="435.389" y="245.821" width="645.7" height="134"/>
    <text font-size="12.8" style="fill: #ffffff;text-anchor:start;font-family:monospace;font-style:normal;font-weight:normal" x="444.389" y="268.721">
      <tspan x="444.389" y="268.721">$ ls elements/</tspan>
      <tspan x="444.389" y="284.721">base                fedora       jenkins       openstack-all      stackuser</tspan>
      <tspan x="444.389" y="300.721">cloud-init-nocloud  glance-api   keystone      os-config-applier  swift</tspan>
      <tspan x="444.389" y="316.721">config-applier      heat-jeos    local-config  os-refresh-config  tripleo-staging</tspan>
      <tspan x="444.389" y="332.721">....</tspan>
      <tspan x="444.389" y="348.721">$ bin/disk-image-create -u base devstack local-config stackuser -o /tmp/bootstrap</tspan>
      <tspan x="444.389" y="364.721">$ bin/ramdisk-image-create deploy -k $(uname -r) -o /tmp/deploy</tspan>
    </text>
  </g>
  <g>
    <line style="fill: none; fill-opacity:0; stroke-width: 2; stroke: #000000" x1="-6.18144" y1="211.036" x2="-6.80191" y2="50.3775"/>
    <polygon style="fill: #000000" points="-11.1814,211.055 -6.14282,221.036 -1.18147,211.016 "/>
    <polygon style="fill: none; fill-opacity:0; stroke-width: 2; stroke: #000000" points="-11.1814,211.055 -6.14282,221.036 -1.18147,211.016 "/>
  </g>
  <g>
    <rect style="fill: #ffffff" x="5.99205" y="70.4129" width="237.3" height="43.1667"/>
    <rect style="fill: none; fill-opacity:0; stroke-width: 2; stroke: #000000" x="5.99205" y="70.4129" width="237.3" height="43.1667"/>
    <text font-size="16.9333" style="fill: #000000;text-anchor:middle;font-family:sans-serif;font-style:normal;font-weight:normal" x="124.642" y="97.1629">
      <tspan x="124.642" y="97.1629">* Download stock images</tspan>
    </text>
  </g>
  <g>
    <line style="fill: none; fill-opacity:0; stroke-width: 2; stroke: #000000" x1="33.4513" y1="313.321" x2="412.451" y2="314.535"/>
    <polygon style="fill: #000000" points="412.435,319.535 422.451,314.567 412.467,309.535 "/>
    <polygon style="fill: none; fill-opacity:0; stroke-width: 2; stroke: #000000" points="412.435,319.535 422.451,314.567 412.467,309.535 "/>
  </g>
  <g>
    <rect style="fill: #ffffff" x="63.3694" y="237.441" width="280.35" height="64.3333"/>
    <rect style="fill: none; fill-opacity:0; stroke-width: 2; stroke: #000000" x="63.3694" y="237.441" width="280.35" height="64.3333"/>
    <text font-size="16.9331" style="fill: #000000;text-anchor:start;font-family:sans-serif;font-style:normal;font-weight:normal" x="72.3694" y="264.191">
      <tspan x="72.3694" y="264.191">* Build deploy ramdisk</tspan>
      <tspan x="72.3694" y="285.358">* Build your own cloud images</tspan>
    </text>
  </g>
  <g>
    <path style="fill: #b7b79d" d="M 431.228 56.7884 L 494.13,56.7884 L 494.13,-82.9243 L 431.228,-82.9243 L 431.228,56.7884 L 431.228,56.7884z"/>
    <path style="fill: none; fill-opacity:0; stroke-width: 0.02; stroke: #000000" d="M 431.228 56.7884 L 494.13,56.7884 L 494.13,-82.9243 L 431.228,-82.9243 L 431.228,56.7884 L 431.228,56.7884"/>
    <path style="fill: none; fill-opacity:0; stroke-width: 0.2; stroke: #494936" d="M 494.128 -82.9211 L 431.224,-82.9211 L 431.224,56.7925 L 494.128,56.7925"/>
    <path style="fill: #c9c9b6" d="M 494.128 56.7884 L 514.219,36.7009 L 514.219,-103.013 L 451.312,-103.013 L 431.224,-82.9251 L 494.128,-82.9251 L 494.128,56.7884 L 494.128,56.7884z"/>
    <path style="fill: none; fill-opacity:0; stroke-width: 0.02; stroke: #000000" d="M 494.128 56.7884 L 514.219,36.7009 L 514.219,-103.013 L 451.312,-103.013 L 431.224,-82.9251 L 494.128,-82.9251 L 494.128,56.7884 L 494.128,56.7884"/>
    <path style="fill: none; fill-opacity:0; stroke-width: 0.2; stroke: #494936" d="M 494.128 56.7884 L 514.219,36.7009 L 514.219,-103.013 L 451.312,-103.013 L 431.224,-82.9251 L 494.128,-82.9251 L 494.128,56.7884"/>
    <path style="fill: #7a7a5a" d="M 494.128 -82.9211 L 514.219,-103.009 L 514.219,36.705 L 494.132,56.7925 L 494.128,-82.9211z"/>
    <path style="fill: none; fill-opacity:0; stroke-width: 0.02; stroke: #000000" d="M 494.128 -82.9211 L 514.219,-103.009 L 514.219,36.705 L 494.132,56.7925 L 494.128,-82.9211"/>
    <path style="fill: none; fill-opacity:0; stroke-width: 0.2; stroke: #494936" d="M 494.128 -82.9211 L 514.219,-103.009 L 514.219,36.705 L 494.132,56.7925 L 494.128,-82.9211"/>
    <path style="fill: none; fill-opacity:0; stroke-width: 0.2; stroke: #494936" d="M 436.677 -19.0202 L 468.358,-19.0202 L 468.358,-23.619 L 436.677,-23.619 L 436.677,-19.0202"/>
    <path style="fill: none; fill-opacity:0; stroke-width: 0.2; stroke: #494936" d="M 436.677 -9.48333 L 468.358,-9.48333 L 468.358,-14.0821 L 436.677,-14.0821 L 436.677,-9.48333"/>
    <path style="fill: none; fill-opacity:0; stroke-width: 0.2; stroke: #494936" d="M 436.677 0.0576511 L 468.358,0.0576511 L 468.358,-4.54115 L 436.677,-4.54115 L 436.677,0.0576511"/>
    <path style="fill: none; fill-opacity:0; stroke-width: 0.2; stroke: #494936" d="M 436.677 9.59045 L 468.358,9.59045 L 468.358,4.99165 L 436.677,4.99165 L 436.677,9.59045"/>
    <path style="fill: none; fill-opacity:0; stroke-width: 0.2; stroke: #494936" d="M 436.677 19.1314 L 468.358,19.1314 L 468.358,14.5326 L 436.677,14.5326 L 436.677,19.1314"/>
    <path style="fill: none; fill-opacity:0; stroke-width: 0.2; stroke: #494936" d="M 436.677 28.6642 L 468.358,28.6642 L 468.358,24.0654 L 436.677,24.0654 L 436.677,28.6642"/>
    <path style="fill: none; fill-opacity:0; stroke-width: 0.2; stroke: #494936" d="M 436.677 38.2052 L 468.358,38.2052 L 468.358,33.6064 L 436.677,33.6064 L 436.677,38.2052"/>
    <path style="fill: none; fill-opacity:0; stroke-width: 0.2; stroke: #494936" d="M 436.677 47.7339 L 468.358,47.7339 L 468.358,43.1351 L 436.677,43.1351 L 436.677,47.7339"/>
    <path style="fill: #a5a585" d="M 472.172 -66.6597 C 472.172,-60.1519 457.93,-54.8827 440.365,-54.8827 C 422.799,-54.8827 408.561,-60.1519 408.561,-66.6597 L 408.561,-39.5125 C 408.561,-33.0128 422.799,-27.7355 440.365,-27.7355 C 457.93,-27.7355 472.172,-33.0128 472.172,-39.5125 L 472.172,-66.6597z"/>
    <path style="fill: none; fill-opacity:0; stroke-width: 0.02; stroke: #000000" d="M 472.172 -66.6597 C 472.172,-60.1519 457.93,-54.8827 440.365,-54.8827 C 422.799,-54.8827 408.561,-60.1519 408.561,-66.6597 L 408.561,-39.5125 C 408.561,-33.0128 422.799,-27.7355 440.365,-27.7355 C 457.93,-27.7355 472.172,-33.0128 472.172,-39.5125 L 472.172,-66.6597"/>
    <path style="fill: none; fill-opacity:0; stroke-width: 0.2; stroke: #494936" d="M 472.172 -66.6597 C 472.172,-60.1519 457.93,-54.8827 440.365,-54.8827 C 422.799,-54.8827 408.561,-60.1519 408.561,-66.6597 L 408.561,-39.5125 C 408.561,-33.0128 422.799,-27.7355 440.365,-27.7355 C 457.93,-27.7355 472.172,-33.0128 472.172,-39.5125 L 472.172,-66.6597"/>
    <path style="fill: #c9c9b6" d="M 440.365 -54.8827 C 457.93,-54.8827 472.172,-60.1519 472.172,-66.6597 C 472.172,-73.1675 457.93,-78.4449 440.365,-78.4449 C 422.799,-78.4449 408.561,-73.1675 408.561,-66.6597 C 408.561,-60.1519 422.799,-54.8827 440.365,-54.8827z"/>
    <path style="fill: none; fill-opacity:0; stroke-width: 0.02; stroke: #000000" d="M 440.365 -54.8827 C 457.93,-54.8827 472.172,-60.1519 472.172,-66.6597 C 472.172,-73.1675 457.93,-78.4449 440.365,-78.4449 C 422.799,-78.4449 408.561,-73.1675 408.561,-66.6597 C 408.561,-60.1519 422.799,-54.8827 440.365,-54.8827"/>
    <path style="fill: none; fill-opacity:0; stroke-width: 0.2; stroke: #494936" d="M 440.365 -54.8827 C 457.93,-54.8827 472.172,-60.1519 472.172,-66.6597 C 472.172,-73.1675 457.93,-78.4449 440.365,-78.4449 C 422.799,-78.4449 408.561,-73.1675 408.561,-66.6597 C 408.561,-60.1519 422.799,-54.8827 440.365,-54.8827"/>
    <path style="fill: #a5a585" d="M 506.236 -42.1328 C 506.236,-35.625 491.994,-30.3557 474.428,-30.3557 C 456.863,-30.3557 442.625,-35.625 442.625,-42.1328 L 442.625,-14.9855 C 442.625,-8.4859 456.863,-3.20852 474.428,-3.20852 C 491.994,-3.20852 506.236,-8.4859 506.236,-14.9855 L 506.236,-42.1328z"/>
    <path style="fill: none; fill-opacity:0; stroke-width: 0.02; stroke: #000000" d="M 506.236 -42.1328 C 506.236,-35.625 491.994,-30.3557 474.428,-30.3557 C 456.863,-30.3557 442.625,-35.625 442.625,-42.1328 L 442.625,-14.9855 C 442.625,-8.4859 456.863,-3.20852 474.428,-3.20852 C 491.994,-3.20852 506.236,-8.4859 506.236,-14.9855 L 506.236,-42.1328"/>
    <path style="fill: none; fill-opacity:0; stroke-width: 0.2; stroke: #494936" d="M 506.236 -42.1328 C 506.236,-35.625 491.994,-30.3557 474.428,-30.3557 C 456.863,-30.3557 442.625,-35.625 442.625,-42.1328 L 442.625,-14.9855 C 442.625,-8.4859 456.863,-3.20852 474.428,-3.20852 C 491.994,-3.20852 506.236,-8.4859 506.236,-14.9855 L 506.236,-42.1328"/>
    <path style="fill: #c9c9b6" d="M 474.428 -30.3557 C 491.994,-30.3557 506.236,-35.625 506.236,-42.1328 C 506.236,-48.6406 491.994,-53.918 474.428,-53.918 C 456.863,-53.918 442.625,-48.6406 442.625,-42.1328 C 442.625,-35.625 456.863,-30.3557 474.428,-30.3557z"/>
    <path style="fill: none; fill-opacity:0; stroke-width: 0.02; stroke: #000000" d="M 474.428 -30.3557 C 491.994,-30.3557 506.236,-35.625 506.236,-42.1328 C 506.236,-48.6406 491.994,-53.918 474.428,-53.918 C 456.863,-53.918 442.625,-48.6406 442.625,-42.1328 C 442.625,-35.625 456.863,-30.3557 474.428,-30.3557"/>
    <path style="fill: none; fill-opacity:0; stroke-width: 0.2; stroke: #494936" d="M 474.428 -30.3557 C 491.994,-30.3557 506.236,-35.625 506.236,-42.1328 C 506.236,-48.6406 491.994,-53.918 474.428,-53.918 C 456.863,-53.918 442.625,-48.6406 442.625,-42.1328 C 442.625,-35.625 456.863,-30.3557 474.428,-30.3557"/>
  </g>
  <g>
    <path style="fill: #b7b796" d="M -46.8356 370.762 L 12.774,370.762 L 12.774,243.641 L -46.8356,243.641 L -46.8356,370.762z"/>
    <path style="fill: none; fill-opacity:0; stroke-width: 0.02; stroke: #000000" d="M -46.8356 370.762 L 12.774,370.762 L 12.774,243.641 L -46.8356,243.641 L -46.8356,370.762"/>
    <path style="fill: none; fill-opacity:0; stroke-width: 0.2; stroke: #494936" d="M -46.8356 370.762 L 12.774,370.762 L 12.774,243.641 L -46.8356,243.641 L -46.8356,370.762"/>
    <path style="fill: #c9c9b6" d="M -46.8356 243.642 L -35.4468,232.325 L 22.0268,232.325 L 12.7756,243.642 L -46.8356,243.642z"/>
    <path style="fill: none; fill-opacity:0; stroke-width: 0.02; stroke: #000000" d="M -46.8356 243.642 L -35.4468,232.325 L 22.0268,232.325 L 12.7756,243.642 L -46.8356,243.642"/>
    <path style="fill: none; fill-opacity:0; stroke-width: 0.2; stroke: #494936" d="M -46.8356 243.642 L -35.4468,232.325 L 22.0268,232.325 L 12.7756,243.642 L -46.8356,243.642"/>
    <path style="fill: #7a7a5a" d="M 12.7716 370.762 L 22.0228,353.139 L 22.0228,232.321 L 12.7716,243.638 L 12.7716,370.758 L 12.7716,370.762z"/>
    <path style="fill: none; fill-opacity:0; stroke-width: 0.02; stroke: #000000" d="M 12.7716 370.762 L 22.0228,353.139 L 22.0228,232.321 L 12.7716,243.638 L 12.7716,370.758 L 12.7716,370.762"/>
    <path style="fill: none; fill-opacity:0; stroke-width: 0.2; stroke: #494936" d="M 12.7716 370.762 L 22.0228,353.139 L 22.0228,232.321 L 12.7716,243.638 L 12.7716,370.758"/>
    <path style="fill: #b7b796" d="M 17.5166 376.438 L 12.7756,370.762 L -46.8356,370.762 L -52.5519,376.438 L 17.5166,376.438 L 17.5166,376.438z"/>
    <path style="fill: none; fill-opacity:0; stroke-width: 0.02; stroke: #000000" d="M 17.5166 376.438 L 12.7756,370.762 L -46.8356,370.762 L -52.5519,376.438 L 17.5166,376.438 L 17.5166,376.438"/>
    <path style="fill: none; fill-opacity:0; stroke-width: 0.2; stroke: #494936" d="M 17.5166 376.438 L 12.7756,370.762 L -46.8356,370.762 L -52.5519,376.438 L 17.5166,376.438"/>
    <path style="fill: #b7b796" d="M 17.5166 376.438 L 26.736,356.718 L 22.0228,353.139 L 12.7716,370.762 L 17.5126,376.438 L 17.5166,376.438z"/>
    <path style="fill: none; fill-opacity:0; stroke-width: 0.02; stroke: #000000" d="M 17.5166 376.438 L 26.736,356.718 L 22.0228,353.139 L 12.7716,370.762 L 17.5126,376.438 L 17.5166,376.438"/>
    <path style="fill: none; fill-opacity:0; stroke-width: 0.2; stroke: #494936" d="M 17.5166 376.438 L 26.736,356.718 L 22.0228,353.139 L 12.7716,370.762 L 17.5126,376.438"/>
    <path style="fill: #b7b796" d="M 12.7716 370.762 L -46.8396,370.762 L 12.7716,370.762z"/>
    <path style="fill: none; fill-opacity:0; stroke-width: 0.2; stroke: #494936" d="M 12.7716 370.762 L -46.8396,370.762"/>
    <path style="fill: #b7b796" d="M 22.0228 353.139 L 12.7716,370.762 L 22.0228,353.139z"/>
    <path style="fill: none; fill-opacity:0; stroke-width: 0.2; stroke: #494936" d="M 22.0228 353.139 L 12.7716,370.762"/>
    <path style="fill: #b7b796" d="M -46.8078 249.505 L 12.5367,249.505 L -46.8078,249.505z"/>
    <path style="fill: none; fill-opacity:0; stroke-width: 0.2; stroke: #494936" d="M -46.8078 249.505 L 12.5367,249.505"/>
    <path style="fill: #b7b796" d="M -46.8595 250.226 L 12.485,250.226 L -46.8595,250.226z"/>
    <path style="fill: none; fill-opacity:0; stroke-width: 0.2; stroke: #494936" d="M -46.8595 250.226 L 12.485,250.226"/>
    <path style="fill: #b7b796" d="M 0.419439 265.44 L -42.831,265.44 L -42.831,269.421 L -34.8378,269.421 L 0.419439,265.44z"/>
    <path style="fill: none; fill-opacity:0; stroke-width: 0.2; stroke: #494936" d="M 0.419439 265.44 L -42.831,265.44 L -42.831,269.421 L -34.8378,269.421"/>
    <path style="fill: #b7b796" d="M 0.419439 272.82 L -42.831,272.82 L -42.831,276.801 L -34.8378,276.801 L 0.419439,272.82z"/>
    <path style="fill: none; fill-opacity:0; stroke-width: 0.2; stroke: #494936" d="M 0.419439 272.82 L -42.831,272.82 L -42.831,276.801 L -34.8378,276.801"/>
    <path style="fill: #b7b796" d="M 0.419439 280.205 L -42.831,280.205 L -42.831,284.185 L -34.8378,284.185 L 0.419439,280.205z"/>
    <path style="fill: none; fill-opacity:0; stroke-width: 0.2; stroke: #494936" d="M 0.419439 280.205 L -42.831,280.205 L -42.831,284.185 L -34.8378,284.185"/>
    <path style="fill: #b7b796" d="M 0.419439 287.585 L -42.831,287.585 L -42.831,291.566 L -34.8378,291.566 L 0.419439,287.585z"/>
    <path style="fill: none; fill-opacity:0; stroke-width: 0.2; stroke: #494936" d="M 0.419439 287.585 L -42.831,287.585 L -42.831,291.566 L -34.8378,291.566"/>
    <path style="fill: #b7b796" d="M 0.419439 294.969 L -42.831,294.969 L -42.831,298.95 L -34.8378,298.95 L 0.419439,294.969z"/>
    <path style="fill: none; fill-opacity:0; stroke-width: 0.2; stroke: #494936" d="M 0.419439 294.969 L -42.831,294.969 L -42.831,298.95 L -34.8378,298.95"/>
    <path style="fill: #b7b796" d="M 0.419439 302.349 L -42.831,302.349 L -42.831,306.33 L -34.8378,306.33 L 0.419439,302.349z"/>
    <path style="fill: none; fill-opacity:0; stroke-width: 0.2; stroke: #494936" d="M 0.419439 302.349 L -42.831,302.349 L -42.831,306.33 L -34.8378,306.33"/>
    <path style="fill: #b7b796" d="M 0.419439 309.73 L -42.831,309.73 L -42.831,313.71 L -34.8378,313.71 L 0.419439,309.73z"/>
    <path style="fill: none; fill-opacity:0; stroke-width: 0.2; stroke: #494936" d="M 0.419439 309.73 L -42.831,309.73 L -42.831,313.71 L -34.8378,313.71"/>
    <path style="fill: #b7b796" d="M 0.419439 317.114 L -42.831,317.114 L -42.831,321.095 L -34.8378,321.095 L 0.419439,317.114z"/>
    <path style="fill: none; fill-opacity:0; stroke-width: 0.2; stroke: #494936" d="M 0.419439 317.114 L -42.831,317.114 L -42.831,321.095 L -34.8378,321.095"/>
    <path style="fill: #b7b796" d="M 0.419439 324.494 L -42.831,324.494 L -42.831,328.475 L -34.8378,328.475 L 0.419439,324.494z"/>
    <path style="fill: none; fill-opacity:0; stroke-width: 0.2; stroke: #494936" d="M 0.419439 324.494 L -42.831,324.494 L -42.831,328.475 L -34.8378,328.475"/>
    <path style="fill: #b7b796" d="M 0.419439 331.878 L -42.831,331.878 L -42.831,335.859 L -34.8378,335.859 L 0.419439,331.878z"/>
    <path style="fill: none; fill-opacity:0; stroke-width: 0.2; stroke: #494936" d="M 0.419439 331.878 L -42.831,331.878 L -42.831,335.859 L -34.8378,335.859"/>
    <path style="fill: #b7b796" d="M 0.419439 339.259 L -42.831,339.259 L -42.831,343.239 L -34.8378,343.239 L 0.419439,339.259z"/>
    <path style="fill: none; fill-opacity:0; stroke-width: 0.2; stroke: #494936" d="M 0.419439 339.259 L -42.831,339.259 L -42.831,343.239 L -34.8378,343.239"/>
    <path style="fill: #b7b796" d="M 0.419439 346.639 L -42.831,346.639 L -42.831,350.62 L -34.8378,350.62 L 0.419439,346.639z"/>
    <path style="fill: none; fill-opacity:0; stroke-width: 0.2; stroke: #494936" d="M 0.419439 346.639 L -42.831,346.639 L -42.831,350.62 L -34.8378,350.62"/>
    <path style="fill: #b7b796" d="M 0.419439 354.023 L -42.831,354.023 L -42.831,358.004 L -34.8378,358.004 L 0.419439,354.023z"/>
    <path style="fill: none; fill-opacity:0; stroke-width: 0.2; stroke: #494936" d="M 0.419439 354.023 L -42.831,354.023 L -42.831,358.004 L -34.8378,358.004"/>
    <path style="fill: #b7b796" d="M 0.419439 361.403 L -42.831,361.403 L -42.831,365.384 L -34.8378,365.384 L 0.419439,361.403z"/>
    <path style="fill: none; fill-opacity:0; stroke-width: 0.2; stroke: #494936" d="M 0.419439 361.403 L -42.831,361.403 L -42.831,365.384 L -34.8378,365.384"/>
  </g>
  <g>
    <rect style="fill: #ffffff" x="482.71" y="138.737" width="248.6" height="43.1667"/>
    <rect style="fill: none; fill-opacity:0; stroke-width: 2; stroke: #000000" x="482.71" y="138.737" width="248.6" height="43.1667"/>
    <text font-size="16.9333" style="fill: #000000;text-anchor:middle;font-family:sans-serif;font-style:normal;font-weight:normal" x="607.01" y="165.487">
      <tspan x="607.01" y="165.487">* Upload images to Glance</tspan>
    </text>
  </g>
  <g>
    <line style="fill: none; fill-opacity:0; stroke-width: 2; stroke: #000000" x1="461.7" y1="79.5384" x2="461.7" y2="229.872"/>
    <polygon style="fill: #000000" points="466.7,79.5384 461.7,69.5384 456.7,79.5384 "/>
    <polygon style="fill: none; fill-opacity:0; stroke-width: 2; stroke: #000000" points="466.7,79.5384 461.7,69.5384 456.7,79.5384 "/>
  </g>
  <g>
    <g>
      <g>
        <path style="fill: #c9c9b6" d="M 961.608 -66.8391 L 974.685,-79.2394 L 1064.7,-79.2394 L 1051.64,-66.8391 L 961.608,-66.8391z"/>
        <path style="fill: none; fill-opacity:0; stroke-width: 0.02; stroke: #494936" d="M 961.608 -66.8391 L 974.685,-79.2394 L 1064.7,-79.2394 L 1051.64,-66.8391 L 961.608,-66.8391"/>
        <path style="fill: #b7b79d" d="M 961.608 -66.8391 L 1051.64,-66.8391 L 1051.64,26.1026 L 961.608,26.1026 L 961.608,-66.8391z"/>
        <path style="fill: none; fill-opacity:0; stroke-width: 0.02; stroke: #494936" d="M 961.608 -66.8391 L 1051.64,-66.8391 L 1051.64,26.1026 L 961.608,26.1026 L 961.608,-66.8391"/>
        <path style="fill: #7a7a5a" d="M 1051.64 26.1026 L 1064.7,12.9392 L 1064.7,-79.2394 L 1051.64,-66.8391 L 1051.64,26.1026z"/>
        <path style="fill: none; fill-opacity:0; stroke-width: 0.02; stroke: #494936" d="M 1051.64 26.1026 L 1064.7,12.9392 L 1064.7,-79.2394 L 1051.64,-66.8391 L 1051.64,26.1026"/>
        <path style="fill: none; fill-opacity:0; stroke-width: 0.6; stroke: #dbdbce" d="M 961.608 -42.0385 L 1052.35,-42.0385"/>
        <path style="fill: none; fill-opacity:0; stroke-width: 0.6; stroke: #000000" d="M 961.608 -18.816 L 1052.35,-18.816"/>
        <path style="fill: none; fill-opacity:0; stroke-width: 0.6; stroke: #000000" d="M 961.608 4.40638 L 1052.35,4.40638"/>
        <path style="fill: none; fill-opacity:0; stroke-width: 0.6; stroke: #494936" d="M 961.608 -42.8189 L 1052.35,-42.8189"/>
        <path style="fill: none; fill-opacity:0; stroke-width: 0.6; stroke: #000000" d="M 961.608 -19.5965 L 1052.35,-19.5965"/>
        <path style="fill: none; fill-opacity:0; stroke-width: 0.6; stroke: #000000" d="M 961.608 3.66063 L 1052.35,3.66063"/>
        <path style="fill: none; fill-opacity:0; stroke-width: 0.02; stroke: #494936" d="M 961.608 -66.8391 L 1051.64,-66.8391 L 1051.64,26.1026 L 961.608,26.1026 L 961.608,-66.8391"/>
        <path style="fill: none; fill-opacity:0; stroke-width: 1.4; stroke: #ecece7" d="M 1023.16 -53.6583 L 1044.7,-53.6583"/>
        <path style="fill: none; fill-opacity:0; stroke-width: 1.4; stroke: #000000" d="M 1023.16 -30.4706 L 1044.7,-30.4706"/>
        <path style="fill: none; fill-opacity:0; stroke-width: 1.4; stroke: #000000" d="M 1023.16 -7.19615 L 1044.7,-7.19615"/>
        <path style="fill: none; fill-opacity:0; stroke-width: 1.4; stroke: #000000" d="M 1023.16 16.0263 L 1044.7,16.0263"/>
        <path style="fill: none; fill-opacity:0; stroke-width: 1.4; stroke: #000000" d="M 1022.41 -54.4388 L 1043.94,-54.4388"/>
        <path style="fill: none; fill-opacity:0; stroke-width: 1.4; stroke: #000000" d="M 1022.41 -31.2164 L 1043.94,-31.2164"/>
        <path style="fill: none; fill-opacity:0; stroke-width: 1.4; stroke: #000000" d="M 1022.41 -7.97659 L 1043.94,-7.97659"/>
        <path style="fill: none; fill-opacity:0; stroke-width: 1.4; stroke: #000000" d="M 1022.41 15.2805 L 1043.94,15.2805"/>
      </g>
      <g>
        <path style="fill: #c9c9b6" d="M 934.304 -42.3159 L 947.381,-54.7162 L 1037.39,-54.7162 L 1024.33,-42.3159 L 934.304,-42.3159z"/>
        <path style="fill: none; fill-opacity:0; stroke-width: 0.02; stroke: #494936" d="M 934.304 -42.3159 L 947.381,-54.7162 L 1037.39,-54.7162 L 1024.33,-42.3159 L 934.304,-42.3159"/>
        <path style="fill: #b7b79d" d="M 934.304 -42.3159 L 1024.33,-42.3159 L 1024.33,50.6258 L 934.304,50.6258 L 934.304,-42.3159z"/>
        <path style="fill: none; fill-opacity:0; stroke-width: 0.02; stroke: #494936" d="M 934.304 -42.3159 L 1024.33,-42.3159 L 1024.33,50.6258 L 934.304,50.6258 L 934.304,-42.3159"/>
        <path style="fill: #7a7a5a" d="M 1024.33 50.6258 L 1037.39,37.4624 L 1037.39,-54.7162 L 1024.33,-42.3159 L 1024.33,50.6258z"/>
        <path style="fill: none; fill-opacity:0; stroke-width: 0.02; stroke: #494936" d="M 1024.33 50.6258 L 1037.39,37.4624 L 1037.39,-54.7162 L 1024.33,-42.3159 L 1024.33,50.6258"/>
        <path style="fill: none; fill-opacity:0; stroke-width: 0.6; stroke: #dbdbce" d="M 934.304 -17.5153 L 1025.04,-17.5153"/>
        <path style="fill: none; fill-opacity:0; stroke-width: 0.6; stroke: #000000" d="M 934.304 5.70717 L 1025.04,5.70717"/>
        <path style="fill: none; fill-opacity:0; stroke-width: 0.6; stroke: #000000" d="M 934.304 28.9296 L 1025.04,28.9296"/>
        <path style="fill: none; fill-opacity:0; stroke-width: 0.6; stroke: #494936" d="M 934.304 -18.2957 L 1025.04,-18.2957"/>
        <path style="fill: none; fill-opacity:0; stroke-width: 0.6; stroke: #000000" d="M 934.304 4.92673 L 1025.04,4.92673"/>
        <path style="fill: none; fill-opacity:0; stroke-width: 0.6; stroke: #000000" d="M 934.304 28.1838 L 1025.04,28.1838"/>
        <path style="fill: none; fill-opacity:0; stroke-width: 0.02; stroke: #494936" d="M 934.304 -42.3159 L 1024.33,-42.3159 L 1024.33,50.6258 L 934.304,50.6258 L 934.304,-42.3159"/>
        <path style="fill: none; fill-opacity:0; stroke-width: 1.4; stroke: #ecece7" d="M 995.855 -29.1351 L 1017.39,-29.1351"/>
        <path style="fill: none; fill-opacity:0; stroke-width: 1.4; stroke: #000000" d="M 995.855 -5.9474 L 1017.39,-5.9474"/>
        <path style="fill: none; fill-opacity:0; stroke-width: 1.4; stroke: #000000" d="M 995.855 17.327 L 1017.39,17.327"/>
        <path style="fill: none; fill-opacity:0; stroke-width: 1.4; stroke: #000000" d="M 995.855 40.5495 L 1017.39,40.5495"/>
        <path style="fill: none; fill-opacity:0; stroke-width: 1.4; stroke: #000000" d="M 995.109 -29.9156 L 1016.63,-29.9156"/>
        <path style="fill: none; fill-opacity:0; stroke-width: 1.4; stroke: #000000" d="M 995.109 -6.69316 L 1016.63,-6.69316"/>
        <path style="fill: none; fill-opacity:0; stroke-width: 1.4; stroke: #000000" d="M 995.109 16.5466 L 1016.63,16.5466"/>
        <path style="fill: none; fill-opacity:0; stroke-width: 1.4; stroke: #000000" d="M 995.109 39.8037 L 1016.63,39.8037"/>
      </g>
      <g>
        <path style="fill: #c9c9b6" d="M 907.404 -17.8159 L 920.481,-30.2162 L 1010.49,-30.2162 L 997.432,-17.8159 L 907.404,-17.8159z"/>
        <path style="fill: none; fill-opacity:0; stroke-width: 0.02; stroke: #494936" d="M 907.404 -17.8159 L 920.481,-30.2162 L 1010.49,-30.2162 L 997.432,-17.8159 L 907.404,-17.8159"/>
        <path style="fill: #b7b79d" d="M 907.404 -17.8159 L 997.432,-17.8159 L 997.432,75.1258 L 907.404,75.1258 L 907.404,-17.8159z"/>
        <path style="fill: none; fill-opacity:0; stroke-width: 0.02; stroke: #494936" d="M 907.404 -17.8159 L 997.432,-17.8159 L 997.432,75.1258 L 907.404,75.1258 L 907.404,-17.8159"/>
        <path style="fill: #7a7a5a" d="M 997.432 75.1258 L 1010.49,61.9624 L 1010.49,-30.2162 L 997.432,-17.8159 L 997.432,75.1258z"/>
        <path style="fill: none; fill-opacity:0; stroke-width: 0.02; stroke: #494936" d="M 997.432 75.1258 L 1010.49,61.9624 L 1010.49,-30.2162 L 997.432,-17.8159 L 997.432,75.1258"/>
        <path style="fill: none; fill-opacity:0; stroke-width: 0.6; stroke: #dbdbce" d="M 907.404 6.98475 L 998.143,6.98475"/>
        <path style="fill: none; fill-opacity:0; stroke-width: 0.6; stroke: #000000" d="M 907.404 30.2072 L 998.143,30.2072"/>
        <path style="fill: none; fill-opacity:0; stroke-width: 0.6; stroke: #000000" d="M 907.404 53.4296 L 998.143,53.4296"/>
        <path style="fill: none; fill-opacity:0; stroke-width: 0.6; stroke: #494936" d="M 907.404 6.20431 L 998.143,6.20431"/>
        <path style="fill: none; fill-opacity:0; stroke-width: 0.6; stroke: #000000" d="M 907.404 29.4267 L 998.143,29.4267"/>
        <path style="fill: none; fill-opacity:0; stroke-width: 0.6; stroke: #000000" d="M 907.404 52.6838 L 998.143,52.6838"/>
        <path style="fill: none; fill-opacity:0; stroke-width: 0.02; stroke: #494936" d="M 907.404 -17.8159 L 997.432,-17.8159 L 997.432,75.1258 L 907.404,75.1258 L 907.404,-17.8159"/>
        <path style="fill: none; fill-opacity:0; stroke-width: 1.4; stroke: #ecece7" d="M 968.955 -4.63513 L 990.495,-4.63513"/>
        <path style="fill: none; fill-opacity:0; stroke-width: 1.4; stroke: #000000" d="M 968.955 18.5526 L 990.495,18.5526"/>
        <path style="fill: none; fill-opacity:0; stroke-width: 1.4; stroke: #000000" d="M 968.955 41.827 L 990.495,41.827"/>
        <path style="fill: none; fill-opacity:0; stroke-width: 1.4; stroke: #000000" d="M 968.955 65.0495 L 990.495,65.0495"/>
        <path style="fill: none; fill-opacity:0; stroke-width: 1.4; stroke: #000000" d="M 968.209 -5.41557 L 989.732,-5.41557"/>
        <path style="fill: none; fill-opacity:0; stroke-width: 1.4; stroke: #000000" d="M 968.209 17.8068 L 989.732,17.8068"/>
        <path style="fill: none; fill-opacity:0; stroke-width: 1.4; stroke: #000000" d="M 968.209 41.0466 L 989.732,41.0466"/>
        <path style="fill: none; fill-opacity:0; stroke-width: 1.4; stroke: #000000" d="M 968.209 64.3037 L 989.732,64.3037"/>
      </g>
    </g>
    <text font-size="16.9331" style="fill: #000000;text-anchor:start;font-family:sans-serif;font-style:normal;font-weight:normal" x="896.218" y="103.761">
      <tspan x="896.218" y="103.761">Bare Metal Nodes</tspan>
    </text>
  </g>
  <g>
    <line style="fill: none; fill-opacity:0; stroke-width: 2; stroke: #000000" x1="525.925" y1="26.4037" x2="870.822" y2="27.4666"/>
    <polygon style="fill: #000000" points="870.806,32.4665 880.822,27.4974 870.837,22.4666 "/>
    <polygon style="fill: none; fill-opacity:0; stroke-width: 2; stroke: #000000" points="870.806,32.4665 880.822,27.4974 870.837,22.4666 "/>
  </g>
  <g>
    <rect style="fill: #ffffff" x="607.754" y="-45.4021" width="173.75" height="64.3333"/>
    <rect style="fill: none; fill-opacity:0; stroke-width: 2; stroke: #000000" x="607.754" y="-45.4021" width="173.75" height="64.3333"/>
    <text font-size="16.9333" style="fill: #000000;text-anchor:start;font-family:sans-serif;font-style:normal;font-weight:normal" x="616.754" y="-18.6521">
      <tspan x="616.754" y="-18.6521">* Deploy images</tspan>
      <tspan x="616.754" y="2.5146">on your Hardware</tspan>
    </text>
  </g>
  <g>
    <image x="932.536" y="177.14" width="113.363" height="39.6628" xlink:href="file:///home/deva/Downloads/cc-by-sa.png"/>
    <text font-size="12.7998" style="fill: #0000ff;text-anchor:start;font-family:sans-serif;font-style:normal;font-weight:normal" x="919.536" y="230.14">
      <tspan x="919.536" y="230.14">http://devananda.net/</tspan>
    </text>
  </g>
</svg>
